<?xml version="1.0" encoding="utf-8"?>
<!-- Generator: Adobe Illustrator 23.0.3, SVG Export Plug-In . SVG Version: 6.00 Build 0)  -->
<svg version="1.1" id="LOGOS" xmlns="http://www.w3.org/2000/svg" xmlns:xlink="http://www.w3.org/1999/xlink" x="0px" y="0px"
	 viewBox="0 0 490.9 77.9" style="enable-background:new 0 0 490.9 77.9;" xml:space="preserve">
<style type="text/css">
	.st0{fill:#FFFFFF;}
	.st1{fill:#6AAAE4;}
	.st2{fill:#EC2D39;}
	.st3{fill:none;stroke:#000000;stroke-width:3;stroke-miterlimit:10;}
</style>
<g>
	<g>
		<path d="M168.7,19.2c-4.6-4-11.1-6-19.6-6h-30.4v17l21.4,0h7.8c2.3,0,4.1,0.7,5.4,2c1.3,1.3,1.9,3.2,1.9,5.6
			c0,2.5-0.6,4.4-1.9,5.8c-1.3,1.4-3.1,2.1-5.4,2.1l-3.3,0h-26v32.4h19.3V61.1h11.1c8.4,0,15-2.2,19.6-6.5
			c4.6-4.3,6.9-10.4,6.9-18.2C175.7,29,173.4,23.3,168.7,19.2z"/>
		<g>
			<g>
				<rect x="196.7" y="63.7" width="54.8" height="14.2"/>
			</g>
			<g>
				<rect x="196.7" y="13.2" width="54.8" height="14.2"/>
			</g>
			<g>
				<rect x="196.7" y="39.3" width="36" height="12.6"/>
			</g>
		</g>
		<polygon points="50.4,35.1 52.6,32.2 81.3,77.9 97.7,77.9 48.8,0 0,77.9 64.9,77.9 56,63.7 25.3,63.7 46.7,29.7 		"/>
		<g>
			<polygon class="st2" points="310.6,66.8 318.4,77.9 345,77.9 323.8,48.1 			"/>
		</g>
		<polygon points="322.1,45.5 308.8,26.7 308.8,26.7 299.3,13.2 272.7,13.2 295.5,45.5 272.7,77.9 299.3,77.9 308.8,64.4 
			308.8,64.4 		"/>
		<polygon class="st1" points="323.9,43.1 345,13.2 318.4,13.2 310.5,24.2 		"/>
	</g>
	<g>
		<g>
			<path d="M377.2,25.3c1.3,0.7,2.3,1.6,3,2.9c0.7,1.2,1.1,2.6,1.1,4.2c0,1.5-0.4,2.9-1.1,4.1c-0.7,1.2-1.7,2.2-3,2.9
				c-1.3,0.7-2.7,1-4.4,1h-6.6V24.3h6.7C374.5,24.3,376,24.6,377.2,25.3z M375.6,37c0.8-0.5,1.4-1.1,1.8-1.9
				c0.4-0.8,0.7-1.7,0.7-2.7c0-1-0.2-1.9-0.7-2.8c-0.5-0.8-1.1-1.5-1.9-1.9c-0.8-0.5-1.7-0.7-2.7-0.7h-3.6v10.6h3.7
				C374,37.6,374.9,37.4,375.6,37z"/>
			<path d="M389,24.3h3.1v16.1H389V24.3z"/>
			<path d="M407.9,27.2c-0.9-0.3-1.6-0.4-2.3-0.4c-0.7,0-1.3,0.1-1.7,0.4c-0.4,0.3-0.6,0.7-0.6,1.1c0,0.4,0.1,0.8,0.4,1.1
				c0.3,0.3,0.7,0.5,1.1,0.7c0.5,0.2,1.1,0.4,1.8,0.6c1.1,0.3,2,0.6,2.7,1c0.7,0.3,1.3,0.8,1.8,1.4c0.5,0.6,0.7,1.5,0.7,2.5
				c0,1-0.3,1.8-0.8,2.6c-0.5,0.7-1.3,1.3-2.2,1.7c-0.9,0.4-2,0.6-3.2,0.6c-1.3,0-2.5-0.2-3.7-0.7c-1.2-0.5-2.2-1.1-3.1-1.9l1.3-2.6
				c0.8,0.7,1.7,1.3,2.7,1.8c1,0.4,1.9,0.6,2.8,0.6c0.9,0,1.5-0.2,2-0.5c0.5-0.3,0.7-0.8,0.7-1.3c0-0.5-0.1-0.8-0.4-1.1
				c-0.3-0.3-0.7-0.5-1.1-0.7c-0.5-0.2-1.1-0.4-1.9-0.6c-1.1-0.3-2-0.6-2.7-0.9c-0.7-0.3-1.3-0.8-1.8-1.4c-0.5-0.6-0.7-1.4-0.7-2.4
				c0-0.9,0.2-1.7,0.7-2.4c0.5-0.7,1.2-1.2,2.1-1.6c0.9-0.4,2-0.6,3.2-0.6c1,0,2.1,0.2,3.1,0.5c1,0.3,1.9,0.7,2.7,1.2l-1.2,2.7
				C409.6,27.9,408.8,27.5,407.9,27.2z"/>
			<path d="M430.5,25.7c1.1,1,1.7,2.3,1.7,4.1c0,1.8-0.6,3.3-1.7,4.3c-1.1,1-2.7,1.5-4.7,1.5h-3.5v4.7h-3.1V24.3h6.6
				C427.8,24.3,429.4,24.8,430.5,25.7z M428.3,32.2c0.6-0.5,0.9-1.3,0.9-2.2c0-1-0.3-1.7-0.9-2.2c-0.6-0.5-1.5-0.7-2.7-0.7h-3.3v5.9
				h3.3C426.8,32.9,427.7,32.7,428.3,32.2z"/>
			<path d="M439.4,24.3h3.1v13.3h6.9v2.8h-10V24.3z"/>
			<path d="M470,40.3l-1.4-3.4h-7.8l-1.4,3.4h-3.2l7-16.1h3.2l6.9,16.1H470z M461.8,34.3h5.6l-2.8-6.7L461.8,34.3z"/>
			<path d="M490.9,24.3L485,35.1v5.3H482v-5.1l-6-10.9h3.1l4.4,7.5l4.3-7.5H490.9z"/>
		</g>
		<g>
			<path d="M366.2,50.9h3.5l5.3,10.3l5.3-10.3h3.5V67H381V55.5l-5,9.9h-2l-5-9.9V67h-2.8V50.9z"/>
			<path d="M391.4,50.9h11.8v2.7h-8.7v4h7.8v2.7h-7.8v4h9V67h-12V50.9z"/>
			<path d="M422.1,51.9c1.3,0.7,2.3,1.6,3,2.9c0.7,1.2,1.1,2.6,1.1,4.2c0,1.5-0.4,2.9-1.1,4.1c-0.7,1.2-1.7,2.2-3,2.9
				c-1.3,0.7-2.7,1-4.4,1h-6.6V50.9h6.7C419.4,50.9,420.9,51.3,422.1,51.9z M420.6,63.6c0.8-0.5,1.4-1.1,1.8-1.9
				c0.4-0.8,0.7-1.7,0.7-2.7c0-1-0.2-1.9-0.7-2.8c-0.5-0.8-1.1-1.5-1.9-1.9c-0.8-0.5-1.7-0.7-2.7-0.7h-3.6v10.6h3.7
				C418.9,64.3,419.8,64,420.6,63.6z"/>
			<path d="M433.7,50.9h3.1V67h-3.1V50.9z"/>
			<path d="M457.7,67l-1.4-3.4h-7.8L447,67h-3.2l7-16.1h3.2L461,67H457.7z M449.5,60.9h5.6l-2.8-6.7L449.5,60.9z"/>
		</g>
	</g>
</g>
</svg>
