<?xml version="1.0" encoding="utf-8"?>
<!-- Generator: Adobe Illustrator 23.0.1, SVG Export Plug-In . SVG Version: 6.00 Build 0)  -->
<svg version="1.1" id="LOGOS" xmlns="http://www.w3.org/2000/svg" xmlns:xlink="http://www.w3.org/1999/xlink" x="0px" y="0px"
	 viewBox="0 0 490.8 75.5" style="enable-background:new 0 0 490.8 75.5;" xml:space="preserve">
<style type="text/css">
	.st0{fill:#FFFFFF;}
	.st1{fill:#6AAAE4;}
	.st2{fill:#EC2D39;}
	.st3{fill:none;stroke:#000000;stroke-width:3;stroke-miterlimit:10;}
	.st4{fill:#201D1E;}
</style>
<path class="st0" d="M367.1,21.6c1.4,0.7,2.5,1.8,3.2,3.1c0.8,1.3,1.2,2.8,1.2,4.5c0,1.7-0.4,3.2-1.2,4.5c-0.8,1.3-1.9,2.4-3.3,3.1
	c-1.4,0.7-3,1.1-4.8,1.1h-7.1V20.5h7.3C364.2,20.5,365.7,20.9,367.1,21.6z M365.4,34.3c0.9-0.5,1.5-1.2,2-2c0.5-0.9,0.7-1.9,0.7-3
	c0-1.1-0.2-2.1-0.7-3c-0.5-0.9-1.2-1.6-2.1-2.1c-0.9-0.5-1.9-0.7-2.9-0.7h-3.9V35h4C363.6,35,364.5,34.8,365.4,34.3z"/>
<path class="st0" d="M379.9,20.5h3.3V38h-3.3V20.5z"/>
<path class="st0" d="M400.5,23.7c-0.9-0.3-1.8-0.4-2.5-0.4c-0.8,0-1.4,0.1-1.9,0.4c-0.5,0.3-0.7,0.7-0.7,1.2c0,0.5,0.2,0.9,0.5,1.2
	c0.3,0.3,0.7,0.6,1.2,0.8c0.5,0.2,1.2,0.4,2,0.7c1.2,0.3,2.2,0.7,2.9,1c0.8,0.3,1.4,0.9,1.9,1.5c0.5,0.7,0.8,1.6,0.8,2.7
	c0,1.1-0.3,2-0.9,2.8c-0.6,0.8-1.4,1.4-2.4,1.8c-1,0.4-2.2,0.6-3.5,0.6c-1.4,0-2.7-0.3-4-0.8c-1.3-0.5-2.4-1.2-3.4-2l1.4-2.8
	c0.9,0.8,1.9,1.5,3,1.9c1.1,0.5,2.1,0.7,3.1,0.7c0.9,0,1.7-0.2,2.2-0.5c0.5-0.4,0.8-0.8,0.8-1.5c0-0.5-0.2-0.9-0.5-1.2
	c-0.3-0.3-0.7-0.6-1.2-0.8c-0.5-0.2-1.2-0.4-2-0.7c-1.2-0.3-2.1-0.7-2.9-1c-0.7-0.3-1.4-0.8-1.9-1.5c-0.5-0.7-0.8-1.6-0.8-2.7
	c0-1,0.3-1.9,0.8-2.7c0.5-0.8,1.3-1.3,2.3-1.8c1-0.4,2.1-0.6,3.4-0.6c1.1,0,2.3,0.2,3.4,0.5c1.1,0.3,2.1,0.8,3,1.3l-1.3,2.9
	C402.4,24.4,401.4,24,400.5,23.7z"/>
<path class="st0" d="M425.1,22.1c1.2,1,1.8,2.5,1.8,4.4c0,2-0.6,3.5-1.8,4.7c-1.2,1.1-2.9,1.7-5.1,1.7h-3.8V38h-3.3V20.5h7.2
	C422.2,20.5,423.9,21,425.1,22.1z M422.7,29.1c0.7-0.5,1-1.4,1-2.4c0-1.1-0.3-1.9-1-2.4c-0.7-0.5-1.6-0.8-2.9-0.8h-3.6v6.5h3.6
	C421.1,29.9,422,29.6,422.7,29.1z"/>
<path class="st0" d="M434.8,20.5h3.3v14.5h7.5v3h-10.9V20.5z"/>
<path class="st0" d="M468.1,38l-1.5-3.7H458l-1.5,3.7H453l7.7-17.5h3.5l7.6,17.5H468.1z M459.2,31.4h6.1l-3-7.3L459.2,31.4z"/>
<path class="st0" d="M490.8,20.5l-6.4,11.8V38h-3.3v-5.6l-6.5-11.9h3.4l4.8,8.2l4.7-8.2H490.8z"/>
<path class="st0" d="M355.1,49.5h3.8l5.8,11.3l5.7-11.3h3.8V67h-3.1V54.4l-5.4,10.7h-2.1l-5.5-10.7V67h-3V49.5z"/>
<path class="st0" d="M382.6,49.5h12.8v2.9h-9.5v4.3h8.5v2.9h-8.5V64h9.8V67h-13.1V49.5z"/>
<path class="st0" d="M416,50.6c1.4,0.7,2.5,1.8,3.2,3.1c0.8,1.3,1.2,2.8,1.2,4.5c0,1.7-0.4,3.2-1.2,4.5c-0.8,1.3-1.9,2.4-3.3,3.1
	c-1.4,0.7-3,1.1-4.8,1.1H404V49.5h7.3C413.1,49.5,414.6,49.9,416,50.6z M414.3,63.3c0.9-0.5,1.5-1.2,2-2c0.5-0.9,0.7-1.9,0.7-3
	c0-1.1-0.2-2.1-0.7-3c-0.5-0.9-1.2-1.6-2.1-2.1c-0.9-0.5-1.9-0.7-2.9-0.7h-3.9V64h4C412.5,64,413.4,63.8,414.3,63.3z"/>
<path class="st0" d="M428.6,49.5h3.3V67h-3.3V49.5z"/>
<path class="st0" d="M454.7,67l-1.5-3.7h-8.5L443,67h-3.5l7.7-17.5h3.5l7.6,17.5H454.7z M445.8,60.4h6.1l-3-7.3L445.8,60.4z"/>
<polygon class="st2" points="301.7,61.9 301.9,62.2 311.3,75.5 334.2,75.5 313.1,45.7 "/>
<polygon class="st1" points="313.1,41.6 334.2,11.8 311.3,11.8 301.9,25.1 301.7,25.4 "/>
<rect x="191.3" y="61.6" class="st0" width="53.9" height="14"/>
<rect x="191.3" y="11.8" class="st0" width="53.9" height="14"/>
<rect x="191.3" y="36.5" class="st0" width="33.8" height="14"/>
<polygon class="st0" points="311.4,43.7 298.4,25.1 298.4,25.1 288.9,11.8 266,11.8 288.5,43.7 266,75.5 288.9,75.5 298.4,62.2 
	298.4,62.2 "/>
<path class="st0" d="M147.1,11.8L147.1,11.8l-27.3,0v0H117v14.1h27v0c4.8,0,8.7,3.9,8.7,8.7c0,4.8-3.9,8.7-8.7,8.7v0h-27v32.2h16.8
	V59l0-3.3h13.4v0c12.1,0,21.9-9.8,21.9-21.9C169.1,21.6,159.2,11.8,147.1,11.8z"/>
<polygon class="st0" points="49.9,34.5 51.9,32 79.5,75.5 96,75.5 72,37.8 48,0 24,37.8 0,75.5 63,75.5 54.2,61.6 25.3,61.6 
	46.2,28.7 "/>
</svg>
