<?xml version="1.0" encoding="utf-8"?>
<!-- Generator: Adobe Illustrator 23.0.3, SVG Export Plug-In . SVG Version: 6.00 Build 0)  -->
<svg version="1.1" id="LOGOS" xmlns="http://www.w3.org/2000/svg" xmlns:xlink="http://www.w3.org/1999/xlink" x="0px" y="0px"
	 viewBox="0 0 359.6 122.4" style="enable-background:new 0 0 359.6 122.4;" xml:space="preserve">
<style type="text/css">
	.st0{fill:#FFFFFF;}
	.st1{fill:#6AAAE4;}
	.st2{fill:#EC2D39;}
	.st3{fill:none;stroke:#000000;stroke-width:3;stroke-miterlimit:10;}
</style>
<g>
	<path class="st0" d="M175.9,20.1c-4.8-4.2-11.6-6.3-20.4-6.3h-31.7v17.7l22.3,0h8.2c2.4,0,4.3,0.7,5.6,2.1c1.3,1.4,2,3.3,2,5.8
		c0,2.6-0.7,4.6-2,6c-1.3,1.4-3.2,2.2-5.6,2.2l-3.4,0h-27.1v33.8H144V63.8h11.5c8.8,0,15.6-2.3,20.4-6.8c4.8-4.5,7.2-10.9,7.2-19
		C183.1,30.2,180.7,24.3,175.9,20.1z"/>
	<g>
		<g>
			<rect x="205.1" y="66.5" class="st0" width="57.1" height="14.8"/>
		</g>
		<g>
			<rect x="205.1" y="13.8" class="st0" width="57.1" height="14.8"/>
		</g>
		<g>
			<rect x="205.1" y="41" class="st0" width="37.5" height="13.1"/>
		</g>
	</g>
	<polygon class="st0" points="52.6,36.6 54.8,33.6 84.8,81.3 101.9,81.3 50.9,0 0,81.3 67.6,81.3 58.4,66.5 26.4,66.5 48.7,31 	"/>
	<g>
		<polygon class="st2" points="323.7,69.7 331.9,81.3 359.6,81.3 337.5,50.2 		"/>
	</g>
	<polygon class="st0" points="335.8,47.5 321.9,27.9 321.9,27.9 312,13.8 284.2,13.8 308.1,47.5 284.2,81.3 312,81.3 321.9,67.2 
		321.9,67.2 	"/>
	<polygon class="st1" points="337.6,45 359.6,13.8 331.9,13.8 323.7,25.3 	"/>
</g>
<g>
	<g>
		<path class="st0" d="M58.5,104.8c1.4,0.7,2.5,1.8,3.3,3.1c0.8,1.3,1.2,2.9,1.2,4.6c0,1.7-0.4,3.2-1.2,4.5
			c-0.8,1.3-1.9,2.4-3.3,3.1c-1.4,0.8-3,1.1-4.8,1.1h-7.2v-17.6h7.3C55.5,103.7,57.1,104,58.5,104.8z M56.7,117.5
			c0.9-0.5,1.5-1.2,2-2.1c0.5-0.9,0.7-1.9,0.7-3c0-1.1-0.3-2.1-0.8-3c-0.5-0.9-1.2-1.6-2.1-2.1c-0.9-0.5-1.9-0.7-3-0.7h-3.9v11.7h4
			C54.9,118.3,55.9,118,56.7,117.5z"/>
		<path class="st0" d="M71.4,103.7h3.4v17.6h-3.4V103.7z"/>
		<path class="st0" d="M92.1,106.9c-0.9-0.3-1.8-0.5-2.5-0.5c-0.8,0-1.4,0.2-1.9,0.5c-0.5,0.3-0.7,0.7-0.7,1.3
			c0,0.5,0.2,0.9,0.5,1.2c0.3,0.3,0.7,0.6,1.2,0.8c0.5,0.2,1.2,0.4,2,0.7c1.2,0.4,2.2,0.7,2.9,1.1c0.8,0.4,1.4,0.9,1.9,1.6
			c0.5,0.7,0.8,1.6,0.8,2.7c0,1.1-0.3,2-0.9,2.8c-0.6,0.8-1.4,1.4-2.4,1.8c-1,0.4-2.2,0.6-3.5,0.6c-1.4,0-2.7-0.3-4-0.8
			c-1.3-0.5-2.4-1.2-3.4-2l1.4-2.9c0.9,0.8,1.9,1.5,3,1.9c1.1,0.5,2.1,0.7,3.1,0.7c0.9,0,1.7-0.2,2.2-0.5c0.5-0.4,0.8-0.9,0.8-1.5
			c0-0.5-0.2-0.9-0.5-1.2c-0.3-0.3-0.7-0.6-1.2-0.8c-0.5-0.2-1.2-0.4-2.1-0.7c-1.2-0.4-2.2-0.7-2.9-1c-0.8-0.3-1.4-0.8-1.9-1.5
			c-0.5-0.7-0.8-1.6-0.8-2.7c0-1,0.3-1.9,0.8-2.7c0.5-0.8,1.3-1.4,2.3-1.8c1-0.4,2.1-0.6,3.5-0.6c1.1,0,2.3,0.2,3.4,0.5
			c1.1,0.3,2.1,0.8,3,1.4l-1.4,2.9C93.9,107.6,93,107.2,92.1,106.9z"/>
		<path class="st0" d="M116.8,105.2c1.2,1.1,1.8,2.5,1.8,4.5c0,2-0.6,3.6-1.8,4.7c-1.2,1.1-2.9,1.7-5.1,1.7h-3.8v5.2h-3.4v-17.6h7.2
			C113.9,103.7,115.6,104.2,116.8,105.2z M114.4,112.3c0.7-0.6,1-1.4,1-2.5c0-1.1-0.3-1.9-1-2.4c-0.7-0.5-1.7-0.8-2.9-0.8h-3.7v6.5
			h3.7C112.8,113.1,113.7,112.8,114.4,112.3z"/>
		<path class="st0" d="M126.5,103.7h3.4v14.6h7.6v3h-11V103.7z"/>
		<path class="st0" d="M160.1,121.3l-1.6-3.7H150l-1.6,3.7h-3.5l7.7-17.6h3.5l7.6,17.6H160.1z M151.2,114.6h6.2l-3.1-7.4
			L151.2,114.6z"/>
		<path class="st0" d="M183,103.7l-6.4,11.8v5.8h-3.4v-5.6l-6.6-12h3.4l4.8,8.3l4.7-8.3H183z"/>
	</g>
	<g>
		<path class="st0" d="M209.4,103.7h3.8l5.8,11.3l5.8-11.3h3.8v17.6h-3.1v-12.6l-5.5,10.8H218l-5.5-10.8v12.6h-3.1V103.7z"/>
		<path class="st0" d="M237.1,103.7h12.9v2.9h-9.5v4.3h8.5v2.9h-8.5v4.4h9.8v2.9h-13.2V103.7z"/>
		<path class="st0" d="M270.7,104.8c1.4,0.7,2.5,1.8,3.3,3.1c0.8,1.3,1.2,2.9,1.2,4.6c0,1.7-0.4,3.2-1.2,4.5
			c-0.8,1.3-1.9,2.4-3.3,3.1c-1.4,0.8-3,1.1-4.8,1.1h-7.2v-17.6h7.3C267.7,103.7,269.3,104,270.7,104.8z M268.9,117.5
			c0.9-0.5,1.5-1.2,2-2.1c0.5-0.9,0.7-1.9,0.7-3c0-1.1-0.3-2.1-0.8-3c-0.5-0.9-1.2-1.6-2.1-2.1c-0.9-0.5-1.9-0.7-3-0.7H262v11.7h4
			C267.1,118.3,268.1,118,268.9,117.5z"/>
		<path class="st0" d="M283.4,103.7h3.4v17.6h-3.4V103.7z"/>
		<path class="st0" d="M309.6,121.3l-1.6-3.7h-8.6l-1.6,3.7h-3.5l7.7-17.6h3.5l7.6,17.6H309.6z M300.7,114.6h6.2l-3.1-7.4
			L300.7,114.6z"/>
	</g>
</g>
</svg>
