<?xml version="1.0" encoding="utf-8"?>
<!-- Generator: Adobe Illustrator 23.0.1, SVG Export Plug-In . SVG Version: 6.00 Build 0)  -->
<svg version="1.1" id="LOGOS" xmlns="http://www.w3.org/2000/svg" xmlns:xlink="http://www.w3.org/1999/xlink" x="0px" y="0px"
	 viewBox="0 0 355.7 121.5" style="enable-background:new 0 0 355.7 121.5;" xml:space="preserve">
<style type="text/css">
	.st0{fill:#FFFFFF;}
	.st1{fill:#6AAAE4;}
	.st2{fill:#EC2D39;}
	.st3{fill:none;stroke:#000000;stroke-width:3;stroke-miterlimit:10;}
	.st4{fill:#201D1E;}
</style>
<path class="st0" d="M46.4,104.1c1.5,0.8,2.6,1.9,3.5,3.3c0.8,1.4,1.2,3,1.2,4.8c0,1.8-0.4,3.4-1.3,4.8c-0.8,1.4-2,2.5-3.5,3.3
	c-1.5,0.8-3.2,1.2-5.1,1.2h-7.6v-18.6h7.7C43.2,102.9,44.9,103.3,46.4,104.1z M44.5,117.6c0.9-0.5,1.6-1.2,2.1-2.2
	c0.5-0.9,0.8-2,0.8-3.2c0-1.2-0.3-2.3-0.8-3.2c-0.5-0.9-1.3-1.7-2.2-2.2c-0.9-0.5-2-0.8-3.1-0.8h-4.1v12.3h4.3
	C42.6,118.4,43.6,118.1,44.5,117.6z"/>
<path class="st0" d="M60,102.9h3.6v18.6H60V102.9z"/>
<path class="st0" d="M81.9,106.3c-1-0.3-1.9-0.5-2.6-0.5c-0.9,0-1.5,0.2-2,0.5c-0.5,0.3-0.7,0.8-0.7,1.3c0,0.5,0.2,0.9,0.5,1.3
	c0.3,0.3,0.8,0.6,1.3,0.9c0.5,0.2,1.2,0.5,2.1,0.7c1.3,0.4,2.3,0.7,3.1,1.1c0.8,0.4,1.5,0.9,2.1,1.6c0.6,0.7,0.9,1.7,0.9,2.9
	c0,1.1-0.3,2.1-0.9,3c-0.6,0.8-1.5,1.5-2.5,1.9c-1.1,0.4-2.3,0.7-3.7,0.7c-1.5,0-2.9-0.3-4.3-0.8c-1.4-0.5-2.6-1.3-3.6-2.2l1.5-3
	c0.9,0.9,2,1.6,3.2,2c1.2,0.5,2.3,0.7,3.3,0.7c1,0,1.8-0.2,2.3-0.6c0.6-0.4,0.9-0.9,0.9-1.6c0-0.5-0.2-1-0.5-1.3
	c-0.3-0.3-0.8-0.6-1.3-0.8c-0.5-0.2-1.3-0.5-2.2-0.7c-1.3-0.4-2.3-0.7-3.1-1.1c-0.8-0.4-1.5-0.9-2-1.6c-0.6-0.7-0.9-1.7-0.9-2.8
	c0-1.1,0.3-2,0.9-2.8c0.6-0.8,1.4-1.4,2.4-1.9c1.1-0.4,2.3-0.7,3.7-0.7c1.2,0,2.4,0.2,3.6,0.5c1.2,0.4,2.2,0.8,3.1,1.4l-1.4,3.1
	C83.9,107.1,82.9,106.7,81.9,106.3z"/>
<path class="st0" d="M108.1,104.6c1.3,1.1,1.9,2.7,1.9,4.7c0,2.1-0.6,3.8-1.9,5c-1.3,1.2-3.1,1.8-5.4,1.8h-4.1v5.5H95v-18.6h7.6
	C105,102.9,106.8,103.5,108.1,104.6z M105.6,112c0.7-0.6,1.1-1.5,1.1-2.6c0-1.1-0.4-2-1.1-2.6c-0.7-0.6-1.7-0.9-3.1-0.9h-3.9v6.9
	h3.9C103.8,112.9,104.9,112.6,105.6,112z"/>
<path class="st0" d="M118.4,102.9h3.6v15.4h8v3.2h-11.6V102.9z"/>
<path class="st0" d="M153.9,121.5l-1.6-3.9h-9.1l-1.6,3.9h-3.7l8.2-18.6h3.7l8.1,18.6H153.9z M144.4,114.5h6.5l-3.2-7.8L144.4,114.5
	z"/>
<path class="st0" d="M178.1,102.9l-6.8,12.5v6.1h-3.6v-6l-6.9-12.6h3.6l5.1,8.7l5-8.7H178.1z"/>
<path class="st0" d="M206.1,102.9h4.1l6.2,12l6.1-12h4.1v18.6h-3.3v-13.3l-5.8,11.4h-2.3l-5.8-11.4v13.3h-3.2V102.9z"/>
<path class="st0" d="M235.3,102.9H249v3.1h-10.1v4.6h9v3.1h-9v4.7h10.4v3.1h-14V102.9z"/>
<path class="st0" d="M270.9,104.1c1.5,0.8,2.6,1.9,3.5,3.3c0.8,1.4,1.2,3,1.2,4.8c0,1.8-0.4,3.4-1.3,4.8c-0.8,1.4-2,2.5-3.5,3.3
	c-1.5,0.8-3.2,1.2-5.1,1.2h-7.6v-18.6h7.7C267.8,102.9,269.4,103.3,270.9,104.1z M269.1,117.6c0.9-0.5,1.6-1.2,2.1-2.2
	c0.5-0.9,0.8-2,0.8-3.2c0-1.2-0.3-2.3-0.8-3.2c-0.5-0.9-1.3-1.7-2.2-2.2c-0.9-0.5-2-0.8-3.1-0.8h-4.1v12.3h4.3
	C267.1,118.4,268.1,118.1,269.1,117.6z"/>
<path class="st0" d="M284.3,102.9h3.6v18.6h-3.6V102.9z"/>
<path class="st0" d="M312.1,121.5l-1.6-3.9h-9.1l-1.6,3.9H296l8.2-18.6h3.7l8.1,18.6H312.1z M302.6,114.5h6.5l-3.2-7.8L302.6,114.5z
	"/>
<polygon class="st2" points="321.1,65.9 321.3,66.2 331.3,80.4 355.7,80.4 333.3,48.7 "/>
<polygon class="st1" points="333.3,44.3 355.7,12.6 331.3,12.6 321.3,26.8 321.1,27.1 "/>
<rect x="203.5" y="65.5" class="st0" width="57.4" height="14.9"/>
<rect x="203.5" y="12.6" class="st0" width="57.4" height="14.9"/>
<rect x="203.5" y="38.9" class="st0" width="36" height="14.9"/>
<polygon class="st0" points="331.5,46.5 317.5,26.8 317.5,26.8 307.5,12.6 283.1,12.6 307.1,46.5 283.1,80.4 307.5,80.4 317.5,66.2 
	317.5,66.2 "/>
<path class="st0" d="M156.5,12.6L156.5,12.6l-29,0v0h-3.1v15h28.8v0c5.1,0,9.3,4.2,9.3,9.3c0,5.1-4.2,9.3-9.3,9.3v0h-28.8v34.3h17.8
	V62.8l0-3.6h14.3v0c12.9,0,23.4-10.4,23.4-23.3C179.9,23,169.4,12.6,156.5,12.6z"/>
<polygon class="st0" points="53.1,36.8 55.2,34.1 84.6,80.4 102.2,80.4 76.7,40.2 51.1,0 25.6,40.2 0,80.4 67.1,80.4 57.7,65.6 
	26.9,65.6 49.2,30.6 "/>
</svg>
