<?xml version="1.0" encoding="utf-8"?>
<!-- Generator: Adobe Illustrator 23.0.3, SVG Export Plug-In . SVG Version: 6.00 Build 0)  -->
<svg version="1.1" id="Layer_1" xmlns="http://www.w3.org/2000/svg" xmlns:xlink="http://www.w3.org/1999/xlink" x="0px" y="0px"
	 viewBox="0 0 147 203" style="enable-background:new 0 0 147 203;" xml:space="preserve">
<style type="text/css">
	.st0{fill-rule:evenodd;clip-rule:evenodd;fill:#FFFFFF;}
</style>
<path class="st0" d="M140,3.5c0,2.2,2,3.9,4.3,3.4c1.3-0.3,2.3-1.3,2.6-2.6c0.5-2.3-1.2-4.3-3.4-4.3C141.6,0,140,1.6,140,3.5
	L140,3.5z"/>
<path class="st0" d="M112,3.5c0,2.2,2,3.9,4.3,3.4c1.3-0.3,2.3-1.3,2.6-2.6c0.5-2.3-1.2-4.3-3.4-4.3C113.6,0,112,1.6,112,3.5
	L112,3.5z"/>
<path class="st0" d="M84,3.5c0,2.2,2,3.9,4.3,3.4c1.3-0.3,2.3-1.3,2.6-2.6c0.6-2.8-2-5.1-4.8-4.1C84.8,0.8,84,2.1,84,3.5L84,3.5z"/>
<path class="st0" d="M56,3.5c0,2.2,2,3.9,4.3,3.4c1.3-0.3,2.3-1.3,2.6-2.6C63.4,2,61.7,0,59.5,0C57.6,0,56,1.6,56,3.5L56,3.5z"/>
<path class="st0" d="M28,3.5c0,2.2,2,3.9,4.3,3.4c1.3-0.3,2.3-1.3,2.6-2.6C35.4,2,33.7,0,31.5,0C29.6,0,28,1.6,28,3.5L28,3.5z"/>
<path class="st0" d="M0,3.5c0,2.2,2,3.9,4.3,3.4c1.3-0.3,2.3-1.3,2.6-2.6C7.4,2,5.7,0,3.5,0C1.6,0,0,1.6,0,3.5L0,3.5z"/>
<path class="st0" d="M140,87.5c0,1.9,1.6,3.5,3.5,3.5s3.5-1.6,3.5-3.5s-1.6-3.5-3.5-3.5C141.6,84,140,85.6,140,87.5L140,87.5z"/>
<path class="st0" d="M112,87.5c0,1.9,1.6,3.5,3.5,3.5c1.9,0,3.5-1.6,3.5-3.5c0-1.9-1.6-3.5-3.5-3.5C113.6,84,112,85.6,112,87.5
	L112,87.5z"/>
<path class="st0" d="M84,87.5c0,1.9,1.6,3.5,3.5,3.5c1.9,0,3.5-1.6,3.5-3.5c0-1.9-1.6-3.5-3.5-3.5C85.6,84,84,85.6,84,87.5
	C84,87.5,84,87.5,84,87.5z"/>
<path class="st0" d="M56,87.5c0,1.9,1.6,3.5,3.5,3.5c1.9,0,3.5-1.6,3.5-3.5c0-1.9-1.6-3.5-3.5-3.5C57.6,84,56,85.6,56,87.5L56,87.5z
	"/>
<path class="st0" d="M28,87.5c0,1.9,1.6,3.5,3.5,3.5s3.5-1.6,3.5-3.5S33.4,84,31.5,84C29.6,84,28,85.6,28,87.5L28,87.5z"/>
<path class="st0" d="M0,87.5C0,89.4,1.6,91,3.5,91C5.4,91,7,89.4,7,87.5C7,85.6,5.4,84,3.5,84C1.6,84,0,85.6,0,87.5L0,87.5z"/>
<path class="st0" d="M140,31.5c0,2.2,2,3.9,4.3,3.4c1.3-0.3,2.3-1.3,2.6-2.6c0.5-2.3-1.2-4.3-3.4-4.3C141.6,28,140,29.6,140,31.5
	L140,31.5z"/>
<path class="st0" d="M112,31.5c0,2.2,2,3.9,4.3,3.4c1.3-0.3,2.3-1.3,2.6-2.6c0.5-2.3-1.2-4.3-3.4-4.3C113.6,28,112,29.6,112,31.5
	L112,31.5L112,31.5z"/>
<path class="st0" d="M84,31.5c0,2.2,2,3.9,4.3,3.4c1.3-0.3,2.3-1.3,2.6-2.6c0.6-2.8-2-5.1-4.8-4.1C84.8,28.8,84,30.1,84,31.5
	L84,31.5z"/>
<path class="st0" d="M56,31.5c0,2.2,2,3.9,4.3,3.4c1.3-0.3,2.3-1.3,2.6-2.6c0.5-2.3-1.2-4.3-3.4-4.3C57.6,28,56,29.6,56,31.5
	L56,31.5L56,31.5z"/>
<path class="st0" d="M28,31.5c0,2.2,2,3.9,4.3,3.4c1.3-0.3,2.3-1.3,2.6-2.6c0.5-2.3-1.2-4.3-3.4-4.3C29.6,28,28,29.6,28,31.5
	L28,31.5z"/>
<path class="st0" d="M0,31.5c0,2.2,2,3.9,4.3,3.4c1.3-0.3,2.3-1.3,2.6-2.6C7.4,30,5.7,28,3.5,28C1.6,28,0,29.6,0,31.5L0,31.5L0,31.5
	z"/>
<path class="st0" d="M140,115.5c0,1.9,1.6,3.5,3.5,3.5s3.5-1.6,3.5-3.5s-1.6-3.5-3.5-3.5C141.6,112,140,113.6,140,115.5L140,115.5z"
	/>
<path class="st0" d="M112,115.5c0,1.9,1.6,3.5,3.5,3.5c1.9,0,3.5-1.6,3.5-3.5c0-1.9-1.6-3.5-3.5-3.5C113.6,112,112,113.6,112,115.5
	L112,115.5z"/>
<path class="st0" d="M84,115.5c0,1.9,1.6,3.5,3.5,3.5c1.9,0,3.5-1.6,3.5-3.5c0-1.9-1.6-3.5-3.5-3.5C85.6,112,84,113.6,84,115.5
	C84,115.5,84,115.5,84,115.5z"/>
<path class="st0" d="M56,115.5c0,1.9,1.6,3.5,3.5,3.5c1.9,0,3.5-1.6,3.5-3.5c0-1.9-1.6-3.5-3.5-3.5C57.6,112,56,113.6,56,115.5
	L56,115.5z"/>
<path class="st0" d="M28,115.5c0,1.9,1.6,3.5,3.5,3.5s3.5-1.6,3.5-3.5s-1.6-3.5-3.5-3.5C29.6,112,28,113.6,28,115.5L28,115.5z"/>
<path class="st0" d="M0,115.5c0,1.9,1.6,3.5,3.5,3.5c1.9,0,3.5-1.6,3.5-3.5c0-1.9-1.6-3.5-3.5-3.5C1.6,112,0,113.6,0,115.5L0,115.5z
	"/>
<path class="st0" d="M140,59.5c0,1.9,1.6,3.5,3.5,3.5s3.5-1.6,3.5-3.5s-1.6-3.5-3.5-3.5C141.6,56,140,57.6,140,59.5L140,59.5z"/>
<path class="st0" d="M112,59.5c0,1.9,1.6,3.5,3.5,3.5c1.9,0,3.5-1.6,3.5-3.5c0-1.9-1.6-3.5-3.5-3.5C113.6,56,112,57.6,112,59.5
	L112,59.5z"/>
<path class="st0" d="M84,59.5c0,1.9,1.6,3.5,3.5,3.5c1.9,0,3.5-1.6,3.5-3.5c0-1.9-1.6-3.5-3.5-3.5C85.6,56,84,57.6,84,59.5
	C84,59.5,84,59.5,84,59.5z"/>
<path class="st0" d="M56,59.5c0,1.9,1.6,3.5,3.5,3.5c1.9,0,3.5-1.6,3.5-3.5c0-1.9-1.6-3.5-3.5-3.5C57.6,56,56,57.6,56,59.5L56,59.5z
	"/>
<path class="st0" d="M28,59.5c0,1.9,1.6,3.5,3.5,3.5s3.5-1.6,3.5-3.5S33.4,56,31.5,56C29.6,56,28,57.6,28,59.5L28,59.5z"/>
<path class="st0" d="M0,59.5C0,61.4,1.6,63,3.5,63C5.4,63,7,61.4,7,59.5C7,57.6,5.4,56,3.5,56C1.6,56,0,57.6,0,59.5L0,59.5z"/>
<path class="st0" d="M140,143.5c0,1.9,1.6,3.5,3.5,3.5s3.5-1.6,3.5-3.5s-1.6-3.5-3.5-3.5C141.6,140,140,141.6,140,143.5L140,143.5z"
	/>
<path class="st0" d="M112,143.5c0,1.9,1.6,3.5,3.5,3.5c1.9,0,3.5-1.6,3.5-3.5c0-1.9-1.6-3.5-3.5-3.5C113.6,140,112,141.6,112,143.5
	L112,143.5z"/>
<path class="st0" d="M84,143.5c0,1.9,1.6,3.5,3.5,3.5c1.9,0,3.5-1.6,3.5-3.5c0-1.9-1.6-3.5-3.5-3.5C85.6,140,84,141.6,84,143.5
	C84,143.5,84,143.5,84,143.5z"/>
<path class="st0" d="M56,143.5c0,1.9,1.6,3.5,3.5,3.5c1.9,0,3.5-1.6,3.5-3.5c0-1.9-1.6-3.5-3.5-3.5C57.6,140,56,141.6,56,143.5
	L56,143.5z"/>
<path class="st0" d="M28,143.5c0,1.9,1.6,3.5,3.5,3.5s3.5-1.6,3.5-3.5s-1.6-3.5-3.5-3.5C29.6,140,28,141.6,28,143.5L28,143.5z"/>
<path class="st0" d="M0,143.5c0,1.9,1.6,3.5,3.5,3.5c1.9,0,3.5-1.6,3.5-3.5c0-1.9-1.6-3.5-3.5-3.5C1.6,140,0,141.6,0,143.5L0,143.5z
	"/>
<path class="st0" d="M140,199.5c0,1.9,1.6,3.5,3.5,3.5s3.5-1.6,3.5-3.5s-1.6-3.5-3.5-3.5C141.6,196,140,197.6,140,199.5L140,199.5z"
	/>
<path class="st0" d="M112,199.5c0,1.9,1.6,3.5,3.5,3.5s3.5-1.6,3.5-3.5c0-1.9-1.6-3.5-3.5-3.5C113.6,196,112,197.6,112,199.5
	L112,199.5z"/>
<path class="st0" d="M84,199.5c0,1.9,1.6,3.5,3.5,3.5s3.5-1.6,3.5-3.5c0-1.9-1.6-3.5-3.5-3.5C85.6,196,84,197.6,84,199.5
	C84,199.5,84,199.5,84,199.5z"/>
<path class="st0" d="M56,199.5c0,1.9,1.6,3.5,3.5,3.5c1.9,0,3.5-1.6,3.5-3.5c0-1.9-1.6-3.5-3.5-3.5C57.6,196,56,197.6,56,199.5
	L56,199.5z"/>
<path class="st0" d="M28,199.5c0,1.9,1.6,3.5,3.5,3.5s3.5-1.6,3.5-3.5s-1.6-3.5-3.5-3.5C29.6,196,28,197.6,28,199.5L28,199.5z"/>
<path class="st0" d="M0,199.5c0,1.9,1.6,3.5,3.5,3.5c1.9,0,3.5-1.6,3.5-3.5c0-1.9-1.6-3.5-3.5-3.5C1.6,196,0,197.6,0,199.5L0,199.5z
	"/>
<path class="st0" d="M140,171.5c0,1.9,1.6,3.5,3.5,3.5s3.5-1.6,3.5-3.5s-1.6-3.5-3.5-3.5C141.6,168,140,169.6,140,171.5L140,171.5z"
	/>
<path class="st0" d="M112,171.5c0,1.9,1.6,3.5,3.5,3.5c1.9,0,3.5-1.6,3.5-3.5c0-1.9-1.6-3.5-3.5-3.5C113.6,168,112,169.6,112,171.5
	L112,171.5z"/>
<path class="st0" d="M84,171.5c0,1.9,1.6,3.5,3.5,3.5c1.9,0,3.5-1.6,3.5-3.5c0-1.9-1.6-3.5-3.5-3.5C85.6,168,84,169.6,84,171.5
	C84,171.5,84,171.5,84,171.5z"/>
<path class="st0" d="M56,171.5c0,1.9,1.6,3.5,3.5,3.5c1.9,0,3.5-1.6,3.5-3.5c0-1.9-1.6-3.5-3.5-3.5C57.6,168,56,169.6,56,171.5
	L56,171.5z"/>
<path class="st0" d="M28,171.5c0,1.9,1.6,3.5,3.5,3.5s3.5-1.6,3.5-3.5s-1.6-3.5-3.5-3.5C29.6,168,28,169.6,28,171.5L28,171.5z"/>
<path class="st0" d="M0,171.5c0,1.9,1.6,3.5,3.5,3.5c1.9,0,3.5-1.6,3.5-3.5c0-1.9-1.6-3.5-3.5-3.5C1.6,168,0,169.6,0,171.5L0,171.5z
	"/>
</svg>
