<svg xmlns="http://www.w3.org/2000/svg" width="163.5" height="203" viewBox="0 0 163.5 203">
  <defs>
    <style>
      .cls-1 {
        fill: #fff;
        fill-rule: evenodd;
      }
    </style>
  </defs>
  <path id="Shape_2_copy" data-name="Shape 2 copy" class="cls-1" d="M234.494,66.5A3.5,3.5,0,1,0,238,63,3.5,3.5,0,0,0,234.494,66.5Zm-28,0a3.5,3.5,0,1,0,3.5-3.5A3.5,3.5,0,0,0,206.5,66.5Zm-28,0A3.5,3.5,0,1,0,182,63,3.5,3.5,0,0,0,178.5,66.5Zm-28,0A3.5,3.5,0,1,0,154,63,3.5,3.5,0,0,0,150.494,66.5Zm-28,0A3.5,3.5,0,1,0,126,63,3.5,3.5,0,0,0,122.5,66.5Zm-28,0a3.5,3.5,0,1,0,3.5-3.5A3.5,3.5,0,0,0,94.5,66.5Zm-28,0A3.5,3.5,0,1,0,70,63,3.5,3.5,0,0,0,66.5,66.5Zm-28,0A3.5,3.5,0,1,0,42,63,3.5,3.5,0,0,0,38.5,66.5Zm196,84A3.5,3.5,0,1,0,238,147,3.5,3.5,0,0,0,234.494,150.5Zm-28,0a3.5,3.5,0,1,0,3.5-3.5A3.5,3.5,0,0,0,206.5,150.5Zm-28,0A3.5,3.5,0,1,0,182,147,3.5,3.5,0,0,0,178.5,150.5Zm-28,0A3.5,3.5,0,1,0,154,147,3.5,3.5,0,0,0,150.494,150.5Zm-28,0A3.5,3.5,0,1,0,126,147,3.5,3.5,0,0,0,122.5,150.5Zm-28,0a3.5,3.5,0,1,0,3.5-3.5A3.5,3.5,0,0,0,94.5,150.5Zm-28,0A3.5,3.5,0,1,0,70,147,3.5,3.5,0,0,0,66.5,150.5Zm-28,0A3.5,3.5,0,1,0,42,147,3.5,3.5,0,0,0,38.5,150.5Zm196-56A3.5,3.5,0,1,0,238,91,3.5,3.5,0,0,0,234.494,94.5Zm-28,0a3.5,3.5,0,1,0,3.5-3.5A3.5,3.5,0,0,0,206.5,94.5Zm-28,0A3.5,3.5,0,1,0,182,91,3.5,3.5,0,0,0,178.5,94.5Zm-28,0A3.5,3.5,0,1,0,154,91,3.5,3.5,0,0,0,150.494,94.5Zm-28,0A3.5,3.5,0,1,0,126,91,3.5,3.5,0,0,0,122.5,94.5Zm-28,0a3.5,3.5,0,1,0,3.5-3.5A3.5,3.5,0,0,0,94.5,94.5Zm-28,0A3.5,3.5,0,1,0,70,91,3.5,3.5,0,0,0,66.5,94.5Zm-28,0A3.5,3.5,0,1,0,42,91,3.5,3.5,0,0,0,38.5,94.5Zm196,84A3.5,3.5,0,1,0,238,175,3.5,3.5,0,0,0,234.494,178.5Zm-28,0a3.5,3.5,0,1,0,3.5-3.5A3.5,3.5,0,0,0,206.5,178.5Zm-28,0A3.5,3.5,0,1,0,182,175,3.5,3.5,0,0,0,178.5,178.5Zm-28,0A3.5,3.5,0,1,0,154,175,3.5,3.5,0,0,0,150.494,178.5Zm-28,0A3.5,3.5,0,1,0,126,175,3.5,3.5,0,0,0,122.5,178.5Zm-28,0a3.5,3.5,0,1,0,3.5-3.5A3.5,3.5,0,0,0,94.5,178.5Zm-28,0A3.5,3.5,0,1,0,70,175,3.5,3.5,0,0,0,66.5,178.5Zm-28,0A3.5,3.5,0,1,0,42,175,3.5,3.5,0,0,0,38.5,178.5Zm196-56A3.5,3.5,0,1,0,238,119,3.5,3.5,0,0,0,234.494,122.5Zm-28,0a3.5,3.5,0,1,0,3.5-3.5A3.5,3.5,0,0,0,206.5,122.5Zm-28,0A3.5,3.5,0,1,0,182,119,3.5,3.5,0,0,0,178.5,122.5Zm-28,0A3.5,3.5,0,1,0,154,119,3.5,3.5,0,0,0,150.494,122.5Zm-28,0A3.5,3.5,0,1,0,126,119,3.5,3.5,0,0,0,122.5,122.5Zm-28,0a3.5,3.5,0,1,0,3.5-3.5A3.5,3.5,0,0,0,94.5,122.5Zm-28,0A3.5,3.5,0,1,0,70,119,3.5,3.5,0,0,0,66.5,122.5Zm-28,0A3.5,3.5,0,1,0,42,119,3.5,3.5,0,0,0,38.5,122.5Zm196,84A3.5,3.5,0,1,0,238,203,3.5,3.5,0,0,0,234.494,206.5Zm-28,0a3.5,3.5,0,1,0,3.5-3.5A3.5,3.5,0,0,0,206.5,206.5Zm-28,0A3.5,3.5,0,1,0,182,203,3.5,3.5,0,0,0,178.5,206.5Zm-28,0A3.5,3.5,0,1,0,154,203,3.5,3.5,0,0,0,150.494,206.5Zm-28,0A3.5,3.5,0,1,0,126,203,3.5,3.5,0,0,0,122.5,206.5Zm-28,0a3.5,3.5,0,1,0,3.5-3.5A3.5,3.5,0,0,0,94.5,206.5Zm-28,0A3.5,3.5,0,1,0,70,203,3.5,3.5,0,0,0,66.5,206.5Zm-28,0A3.5,3.5,0,1,0,42,203,3.5,3.5,0,0,0,38.5,206.5Zm196,56A3.5,3.5,0,1,0,238,259,3.5,3.5,0,0,0,234.494,262.5Zm-28,0a3.5,3.5,0,1,0,3.5-3.5A3.5,3.5,0,0,0,206.5,262.5Zm-28,0A3.5,3.5,0,1,0,182,259,3.5,3.5,0,0,0,178.5,262.5Zm-28,0A3.5,3.5,0,1,0,154,259,3.5,3.5,0,0,0,150.494,262.5Zm-28,0A3.5,3.5,0,1,0,126,259,3.5,3.5,0,0,0,122.5,262.5Zm-28,0a3.5,3.5,0,1,0,3.5-3.5A3.5,3.5,0,0,0,94.5,262.5Zm-28,0A3.5,3.5,0,1,0,70,259,3.5,3.5,0,0,0,66.5,262.5Zm-28,0A3.5,3.5,0,1,0,42,259,3.5,3.5,0,0,0,38.5,262.5Zm196-28A3.5,3.5,0,1,0,238,231,3.5,3.5,0,0,0,234.494,234.5Zm-28,0a3.5,3.5,0,1,0,3.5-3.5A3.5,3.5,0,0,0,206.5,234.5Zm-28,0A3.5,3.5,0,1,0,182,231,3.5,3.5,0,0,0,178.5,234.5Zm-28,0A3.5,3.5,0,1,0,154,231,3.5,3.5,0,0,0,150.494,234.5Zm-28,0A3.5,3.5,0,1,0,126,231,3.5,3.5,0,0,0,122.5,234.5Zm-28,0a3.5,3.5,0,1,0,3.5-3.5A3.5,3.5,0,0,0,94.5,234.5Zm-28,0A3.5,3.5,0,1,0,70,231,3.5,3.5,0,0,0,66.5,234.5Zm-28,0A3.5,3.5,0,1,0,42,231,3.5,3.5,0,0,0,38.5,234.5Z" transform="translate(-78 -63)"/>
</svg>
