<svg xmlns="http://www.w3.org/2000/svg" width="75" height="75" viewBox="0 0 75 75">
  <defs>
    <style>
      .cls-1 {
        fill: #6aaae4;
        fill-rule: evenodd;
      }
    </style>
  </defs>
  <path id="icon-waittimes-blue" class="cls-1" d="M3480.42,2120.63a0.939,0.939,0,0,0-.94.94v8.01a0.939,0.939,0,0,0,.94.94h8a0.945,0.945,0,0,0,0-1.89h-6.6a0.459,0.459,0,0,1-.46-0.46v-6.6A0.939,0.939,0,0,0,3480.42,2120.63Zm-7.02,27.66a5.065,5.065,0,0,1-4.84-2.41,0.954,0.954,0,0,0-1.32-.23,0.924,0.924,0,0,0-.38.61,0.907,0.907,0,0,0,.15.7,6.872,6.872,0,0,0,6.39,3.21c1.62,0,1.86,2.93,1.86,4.67v2.81a0.453,0.453,0,0,1-.46.46h-4.21a0.459,0.459,0,0,1-.46-0.46v-2.81a0.945,0.945,0,0,0-1.89,0v2.81a0.453,0.453,0,0,1-.46.46h-8.42a0.459,0.459,0,0,1-.46-0.46v-2.81a0.945,0.945,0,0,0-1.89,0v2.81a0.453,0.453,0,0,1-.46.46h-4.21a0.459,0.459,0,0,1-.46-0.46v-2.81c0-1.74.25-4.67,1.87-4.67a6.866,6.866,0,0,0,6.38-3.21,0.912,0.912,0,0,0,.16-0.7,0.9,0.9,0,0,0-.39-0.61,0.959,0.959,0,0,0-.54-0.17,0.943,0.943,0,0,0-.77.4,5.075,5.075,0,0,1-4.84,2.41c-2.42,0-3.75,2.32-3.75,6.55v4.21a0.947,0.947,0,0,0,.94.95h25.27a0.954,0.954,0,0,0,.94-0.95v-4.21C3477.15,2150.61,3475.82,2148.29,3473.4,2148.29Zm-9.83-3.73c2.89,0,5.16-3.59,5.16-8.17,0-5.73-3.61-6.35-5.16-6.35s-5.15.62-5.15,6.35C3458.42,2140.97,3460.68,2144.56,3463.57,2144.56Zm0-12.64c0.81,0,3.27,0,3.27,4.47,0,3.35-1.53,6.28-3.27,6.28s-3.27-2.93-3.27-6.28C3460.3,2131.92,3462.77,2131.92,3463.57,2131.92Zm16.85-15.92a13.569,13.569,0,0,0-13.5,12.07,0.957,0.957,0,0,0,.84,1.04c0.03,0,.07.01,0.11,0.01a0.933,0.933,0,0,0,.93-0.84,11.689,11.689,0,1,1,3.82,10.01,0.9,0.9,0,0,0-.63-0.24,0.936,0.936,0,0,0-.62,1.64A13.575,13.575,0,1,0,3480.42,2116Z" transform="translate(-3434.5 -2100.5)"/>
</svg>
