<svg xmlns="http://www.w3.org/2000/svg" width="75" height="75" viewBox="0 0 75 75">
  <defs>
    <style>
      .cls-1 {
        fill: #fff;
        fill-rule: evenodd;
      }
    </style>
  </defs>
  <path id="icon-awareness-white" class="cls-1" d="M907.629,2104.94a3.744,3.744,0,0,0-3.752,3.73v0.4a0.458,0.458,0,0,1-.308.43l-14.919,5.09c-0.033.01-.061,0.03-0.09,0.04s-0.05.03-.075,0.05a0.435,0.435,0,0,1-.22.05,0.449,0.449,0,0,1-.339-0.15,3.785,3.785,0,0,0-2.816-1.26h-8.3a3.806,3.806,0,0,0-3.812,3.79v11.07a3.79,3.79,0,0,0,2.507,3.54,0.462,0.462,0,0,1,.3.43v9.36a4.453,4.453,0,0,0,8.9,0v-3.65a0.426,0.426,0,0,1,.172-0.35,0.447,0.447,0,0,1,.29-0.11c0.03,0,.06.01,0.093,0.01a6.467,6.467,0,0,0,7.659-4.74,0.454,0.454,0,0,1,.226-0.28,0.432,0.432,0,0,1,.218-0.06,0.381,0.381,0,0,1,.149.03l10.055,3.43a0.458,0.458,0,0,1,.308.43v0.4a3.753,3.753,0,0,0,7.5,0v-27.95A3.745,3.745,0,0,0,907.629,2104.94Zm-24.807,36.57a2.567,2.567,0,0,1-5.133,0v-9.08a0.457,0.457,0,0,1,.46-0.46h4.211a0.457,0.457,0,0,1,.462.46v9.08Zm-6.016-11.42a1.922,1.922,0,0,1-1.925-1.91v-11.07a1.922,1.922,0,0,1,1.925-1.91h8.3a1.92,1.92,0,0,1,1.923,1.91v11.07a1.92,1.92,0,0,1-1.923,1.91h-8.3Zm14.359,1.99c-0.018.04-.041,0.08-0.062,0.12l-0.011.01a4.581,4.581,0,0,1-6.077,3.17,0.446,0.446,0,0,1-.308-0.43v-2.49c0-.01,0-0.03,0-0.04a0.465,0.465,0,0,1,.456-0.46,3.776,3.776,0,0,0,2.764-1.25,0.449,0.449,0,0,1,.339-0.15,0.435,0.435,0,0,1,.22.05c0.025,0.02.049,0.03,0.075,0.05l0.089,0.03,2.241,0.77a0.454,0.454,0,0,1,.274.25A0.479,0.479,0,0,1,891.165,2132.08Zm12.712,1.19a0.471,0.471,0,0,1-.192.37,0.427,0.427,0,0,1-.267.08,0.394,0.394,0,0,1-.151-0.02l-13.889-4.74c-0.04-.02-0.083-0.04-0.119-0.06a0.83,0.83,0,0,1-.34-0.67v-11.18a0.825,0.825,0,0,1,.34-0.66,0.554,0.554,0,0,1,.119-0.06l13.889-4.74a0.394,0.394,0,0,1,.151-0.02,0.5,0.5,0,0,1,.267.08,0.471,0.471,0,0,1,.192.37v21.25Zm5.617,3.35a1.864,1.864,0,0,1-3.728,0v-27.95a1.864,1.864,0,0,1,3.728,0v27.95Zm5.155-24.22h1.4a0.935,0.935,0,1,0,0-1.87h-1.4A0.935,0.935,0,1,0,914.649,2112.4Zm1.4,3.72h-1.4a0.935,0.935,0,1,0,0,1.87h1.4A0.935,0.935,0,1,0,916.053,2116.12Zm0,5.59h-1.4a0.935,0.935,0,1,0,0,1.87h1.4A0.935,0.935,0,1,0,916.053,2121.71Zm0,5.59h-1.4a0.935,0.935,0,1,0,0,1.87h1.4A0.935,0.935,0,1,0,916.053,2127.3Zm0,5.59h-1.4a0.935,0.935,0,1,0,0,1.87h1.4A0.935,0.935,0,1,0,916.053,2132.89Zm-33.693-13.98h-2.807a0.94,0.94,0,1,0,0,1.88h2.807A0.94,0.94,0,1,0,882.36,2118.91Zm0,5.59h-2.807a0.94,0.94,0,1,0,0,1.88h2.807A0.94,0.94,0,1,0,882.36,2124.5Z" transform="translate(-857.5 -2087.94)"/>
</svg>
