<svg xmlns="http://www.w3.org/2000/svg" width="75" height="75" viewBox="0 0 75 75">
  <defs>
    <style>
      .cls-1 {
        fill: #6aaae4;
        fill-rule: evenodd;
      }
    </style>
  </defs>
  <path id="icon-warranty-blue" class="cls-1" d="M528,1582a6.005,6.005,0,0,0-6,6v31h0.053a4.473,4.473,0,0,0,4.3,4H542v-2H526.352a2.508,2.508,0,0,1-2.352-2.53,2.445,2.445,0,0,1,2.352-2.47H558v-34H528Zm27,32H526.352a4.214,4.214,0,0,0-2.352.74V1588a4,4,0,0,1,4-4h28v30h-1Zm1,7h-2v2h4v-5h-2v3Zm-13,9,5-3.75,5,3.75v-12H543v12Zm2-10h6v6l-3-2.25-3,2.25v-6Zm5.584-26.85h0a0.985,0.985,0,0,0-.707.29l-3.148,3.15-1.742-1.74,3.148-3.15a1,1,0,0,0-.006-1.42c-2.19-2.15-6.34-1.37-8.447.74l-0.643.64a6.3,6.3,0,0,0-1.5,6.4l-6.247,6.25,1.414,1.41,6.75-6.75a1,1,0,0,0,.144-1.23,4.1,4.1,0,0,1,.848-4.67l0.643-.64a5.158,5.158,0,0,1,4.738-1.26l-2.968,2.97a1,1,0,0,0-.293.71,1.023,1.023,0,0,0,.293.71l3.156,3.15a1,1,0,0,0,1.414,0l2.967-2.97a5.155,5.155,0,0,1-1.255,4.74l-0.643.64a4.08,4.08,0,0,1-4.667.85,1,1,0,0,0-1.233.15l-6.75,6.74,1.414,1.42,6.247-6.25a6.286,6.286,0,0,0,6.4-1.49l0.643-.64c2.107-2.11,2.887-6.26.735-8.45A1,1,0,0,0,550.584,1593.15ZM526,1612h2v-25h-2v25Z" transform="translate(-502.5 -1568.5)"/>
</svg>
