<svg xmlns="http://www.w3.org/2000/svg" width="75" height="75" viewBox="0 0 75 75">
  <defs>
    <style>
      .cls-1 {
        fill: #6aaae4;
        fill-rule: evenodd;
      }
    </style>
  </defs>
  <path id="icon-inform-blue" class="cls-1" d="M3493.05,2612.06a0.939,0.939,0,0,0-.94.94v10.2a1.494,1.494,0,0,1-1.49,1.49h-10.26a0.467,0.467,0,0,1-.46-0.43c-0.34-4.29-2.19-5.19-3.69-5.19a5.086,5.086,0,0,1-4.85-2.4,0.93,0.93,0,0,0-.77-0.4,0.959,0.959,0,0,0-.54.17,0.937,0.937,0,0,0-.39.61,0.967,0.967,0,0,0,.16.7,6.872,6.872,0,0,0,6.39,3.21c0.68,0,1.55.56,1.79,3.23a0.425,0.425,0,0,1-.11.35,0.448,0.448,0,0,1-.34.15h-22.34a0.448,0.448,0,0,1-.34-0.15,0.47,0.47,0,0,1-.12-0.35c0.25-2.67,1.12-3.23,1.8-3.23a6.872,6.872,0,0,0,6.39-3.21,0.922,0.922,0,0,0,.16-0.7,0.943,0.943,0,0,0-1.7-.38,5.086,5.086,0,0,1-4.85,2.4c-1.41,0-3.19.81-3.64,4.63a0.456,0.456,0,0,1-.38.4,0.22,0.22,0,0,1-.08.01,0.463,0.463,0,0,1-.41-0.26,1.417,1.417,0,0,1-.16-0.65v-28.83a1.485,1.485,0,0,1,1.49-1.48h13.01a0.945,0.945,0,1,0,0-1.89h-13.01a3.372,3.372,0,0,0-3.37,3.37v28.83a3.38,3.38,0,0,0,3.37,3.38h11.61a0.459,0.459,0,0,1,.46.46c0,4-1.38,5.51-1.98,5.97a0.419,0.419,0,0,1-.28.1h-3.82a0.945,0.945,0,0,0,0,1.89h25.27a0.945,0.945,0,0,0,0-1.89h-3.83a0.4,0.4,0,0,1-.28-0.1c-0.6-.46-1.96-1.96-1.96-5.97a0.453,0.453,0,0,1,.46-0.46h11.6a3.389,3.389,0,0,0,3.38-3.38V2613A0.947,0.947,0,0,0,3493.05,2612.06Zm-15.33,20.83a0.445,0.445,0,0,1-.39.22h-10.67a0.445,0.445,0,0,1-.39-0.22,0.433,0.433,0,0,1-.02-0.44,12.18,12.18,0,0,0,1.07-5.41,0.459,0.459,0,0,1,.46-0.46h8.43a0.459,0.459,0,0,1,.46.46,12.18,12.18,0,0,0,1.07,5.41A0.412,0.412,0,0,1,3477.72,2632.89Zm-1.51-34.39h11.23a0.945,0.945,0,0,0,0-1.89h-11.23A0.945,0.945,0,1,0,3476.21,2598.5Zm0,5.62h11.23a0.945,0.945,0,0,0,0-1.89h-11.23A0.945,0.945,0,1,0,3476.21,2604.12Zm15.44-13.12H3472a2.347,2.347,0,0,0-2.35,2.35v5.61a0.945,0.945,0,0,0,1.89,0v-5.61a0.453,0.453,0,0,1,.46-0.46h19.65a0.459,0.459,0,0,1,.46.46v13.59a0.9,0.9,0,0,1-.9.9h-6.58a0.988,0.988,0,0,0-.59.21l-4.74,3.79a0.419,0.419,0,0,1-.28.1,0.445,0.445,0,0,1-.46-0.46v-2.69a0.956,0.956,0,0,0-.95-0.95h-2.8a0.945,0.945,0,1,0,0,1.89h1.4a0.465,0.465,0,0,1,.46.46v4.21a0.946,0.946,0,0,0,.53.85,0.916,0.916,0,0,0,1-.11l6.63-5.31a0.534,0.534,0,0,1,.29-0.1h6.09a2.791,2.791,0,0,0,2.79-2.79v-13.59A2.354,2.354,0,0,0,3491.65,2591Zm-30.42,16.18c0,4.58,2.26,8.17,5.15,8.17s5.16-3.59,5.16-8.17c0-5.74-3.61-6.35-5.16-6.35S3461.23,2601.44,3461.23,2607.18Zm8.42,0c0,3.35-1.53,6.28-3.27,6.28s-3.27-2.93-3.27-6.28c0-4.47,2.46-4.47,3.27-4.47S3469.65,2602.71,3469.65,2607.18Z" transform="translate(-3434.5 -2575.5)"/>
</svg>
