<svg xmlns="http://www.w3.org/2000/svg" width="75" height="75" viewBox="0 0 75 75">
  <defs>
    <style>
      .cls-1 {
        fill: #6aaae4;
        fill-rule: evenodd;
      }
    </style>
  </defs>
  <path id="icon-conversions-blue" class="cls-1" d="M4516.25,2178.19a1.965,1.965,0,0,1,1.89,1.15,0.949,0.949,0,0,0,.88.62,0.976,0.976,0,0,0,.33-0.07,0.913,0.913,0,0,0,.53-0.49,0.946,0.946,0,0,0,.02-0.72,3.765,3.765,0,0,0-2.42-2.23,0.462,0.462,0,0,1-.32-0.44v-0.2a0.94,0.94,0,1,0-1.88,0v0.26a0.477,0.477,0,0,1-.31.44,3.784,3.784,0,0,0-1.31.77,3.479,3.479,0,0,0-1.18,2.63c0,0.91.44,2.63,3.39,3.79,0.83,0.33,2.21,1.03,2.21,2.05a1.683,1.683,0,0,1-.56,1.23,2.111,2.111,0,0,1-3.22-.67,0.94,0.94,0,0,0-.88-0.61,0.974,0.974,0,0,0-.34.06,0.942,0.942,0,0,0-.54,1.22,3.758,3.758,0,0,0,2.41,2.22,0.459,0.459,0,0,1,.33.44v0.21a0.94,0.94,0,0,0,1.88,0v-0.27a0.441,0.441,0,0,1,.31-0.43,3.784,3.784,0,0,0,1.31-.77,3.546,3.546,0,0,0,1.18-2.63c0-.92-0.44-2.64-3.4-3.8-0.82-.33-2.2-1.02-2.2-2.04a1.672,1.672,0,0,1,.56-1.24A1.972,1.972,0,0,1,4516.25,2178.19Zm30.79-27.19h-18.21a0.945,0.945,0,0,0-.67,1.61l5.32,5.32a0.484,0.484,0,0,1,0,.66l-9.52,9.53a0.94,0.94,0,0,0,.66,1.61,0.962,0.962,0,0,0,.67-0.27l10.51-10.53a0.966,0.966,0,0,0,0-1.34l-3.92-3.92a0.463,0.463,0,0,1-.1-0.5,0.471,0.471,0,0,1,.43-0.28h13.43a0.459,0.459,0,0,1,.46.46v13.45a0.461,0.461,0,0,1-.28.43,0.566,0.566,0,0,1-.18.03,0.46,0.46,0,0,1-.33-0.13l-3.91-3.92a0.93,0.93,0,0,0-1.33,0l-10.51,10.53a0.945,0.945,0,0,0,.67,1.61,0.907,0.907,0,0,0,.66-0.28l9.52-9.54a0.46,0.46,0,0,1,.33-0.13,0.454,0.454,0,0,1,.32.13l5.32,5.33a0.895,0.895,0,0,0,1.02.2,0.928,0.928,0,0,0,.58-0.87v-18.25A0.939,0.939,0,0,0,4547.04,2151Zm0,26.67h-15.41a0.949,0.949,0,0,0-.87.58,0.935,0.935,0,0,0,.2,1.03l4.62,4.62a0.471,0.471,0,0,1,0,.66l-8.82,8.83a0.936,0.936,0,0,0,0,1.33,0.947,0.947,0,0,0,.67.28,0.924,0.924,0,0,0,.66-0.28l9.81-9.82a0.948,0.948,0,0,0,0-1.34l-3.21-3.21a0.48,0.48,0,0,1-.1-0.51,0.457,0.457,0,0,1,.42-0.28h10.63a0.459,0.459,0,0,1,.46.46v10.65a0.457,0.457,0,0,1-.28.42,0.392,0.392,0,0,1-.18.04,0.471,0.471,0,0,1-.33-0.14l-3.21-3.21a0.924,0.924,0,0,0-.66-0.28,0.947,0.947,0,0,0-.67.28l-5.6,5.61a0.936,0.936,0,0,0,0,1.33,0.907,0.907,0,0,0,.66.28,0.947,0.947,0,0,0,.67-0.28l4.61-4.62a0.46,0.46,0,0,1,.33-0.13,0.454,0.454,0,0,1,.32.13l4.62,4.62a0.907,0.907,0,0,0,.66.28,0.857,0.857,0,0,0,.36-0.07,0.949,0.949,0,0,0,.58-0.87v-15.45A0.945,0.945,0,0,0,4547.04,2177.67Zm-27.84-13.25a0.392,0.392,0,0,1-.18.04,0.471,0.471,0,0,1-.33-0.14l-3.21-3.22a0.956,0.956,0,0,0-.66-0.27,0.981,0.981,0,0,0-.67.27l-9.81,9.83a0.944,0.944,0,1,0,1.34,1.33l8.81-8.83a0.471,0.471,0,0,1,.33-0.14,0.431,0.431,0,0,1,.32.14l4.62,4.62a0.931,0.931,0,0,0,1.02.21,0.952,0.952,0,0,0,.58-0.88v-15.44a0.939,0.939,0,0,0-.94-0.94h-15.41a0.949,0.949,0,0,0-.87.58,0.935,0.935,0,0,0,.2,1.03l4.62,4.62a0.459,0.459,0,0,1,0,.65l-4.62,4.63a0.944,0.944,0,1,0,1.34,1.33l5.6-5.61a0.948,0.948,0,0,0,0-1.34l-3.21-3.22a0.463,0.463,0,0,1-.1-0.5,0.457,0.457,0,0,1,.42-0.28h10.63a0.459,0.459,0,0,1,.46.46V2164A0.457,0.457,0,0,1,4519.2,2164.42Zm-2.98,6.23a12.175,12.175,0,1,0,12.15,12.18A12.176,12.176,0,0,0,4516.22,2170.65Zm0,22.46a10.285,10.285,0,1,1,10.27-10.28A10.287,10.287,0,0,1,4516.22,2193.11Z" transform="translate(-4488.515 -2135.5)"/>
</svg>
