<svg xmlns="http://www.w3.org/2000/svg" width="75" height="75" viewBox="0 0 75 75">
  <defs>
    <style>
      .cls-1 {
        fill: #6aaae4;
        fill-rule: evenodd;
      }
    </style>
  </defs>
  <path id="icon_disposal" class="cls-1" d="M1276.29,2006.46a0.947,0.947,0,0,0-.95.94v3.28a0.442,0.442,0,0,1-.29.42l-3.09,1.28a0.913,0.913,0,0,0-.51.51,0.926,0.926,0,0,0,0,.73,0.952,0.952,0,0,0,.88.58,0.937,0.937,0,0,0,.36-0.08l3.97-1.64a0.932,0.932,0,0,0,.56-0.96,0.139,0.139,0,0,1,0-.09,0.585,0.585,0,0,1,.02-0.13v-3.9A0.941,0.941,0,0,0,1276.29,2006.46Zm6.62-13.34a1.556,1.556,0,0,0-.07-0.32,0.169,0.169,0,0,1-.02-0.05,0.98,0.98,0,0,0-.16-0.25c-0.02-.02-0.04-0.03-0.06-0.05l-0.02-.02a0.314,0.314,0,0,0-.1-0.08,0.558,0.558,0,0,0-.08-0.05l-0.05-.02a0.161,0.161,0,0,1-.07-0.04l-19.79-8.17a0.9,0.9,0,0,0-.37-0.07,0.922,0.922,0,0,0-.36.07l-19.78,8.17a0.2,0.2,0,0,1-.08.04l-0.05.03a0.2,0.2,0,0,0-.08.04,0.314,0.314,0,0,0-.1.08l-0.02.02-0.05.05a0.635,0.635,0,0,0-.16.25,0.163,0.163,0,0,0-.03.06,0.987,0.987,0,0,0-.06.3,0.109,0.109,0,0,1-.01.05V2006a0.955,0.955,0,0,0,1.91,0v-10.76a0.461,0.461,0,0,1,.2-0.39,0.484,0.484,0,0,1,.26-0.07,0.566,0.566,0,0,1,.18.03l17,7.02a0.461,0.461,0,0,1,.28.43v21.99a1.151,1.151,0,0,0,.07.33l0.02,0.03a0.037,0.037,0,0,0,.01.03,0.786,0.786,0,0,0,.17.25,1.006,1.006,0,0,0,.39.25,1.047,1.047,0,0,0,.3.05,0.971,0.971,0,0,0,.37-0.07l19.82-8.19a0.943,0.943,0,0,0,.59-0.87v-22.94Zm-26.93-4.62,5.97-2.46a0.366,0.366,0,0,1,.18-0.04,0.329,0.329,0,0,1,.17.04l16.15,6.67a0.452,0.452,0,0,1,.29.42,0.465,0.465,0,0,1-.29.43l-5.73,2.36a1.182,1.182,0,0,1-1.02-.08h0l-15.72-6.49A0.456,0.456,0,0,1,1255.98,1988.5Zm6.32,11.73a0.467,0.467,0,0,1-.17.03,0.523,0.523,0,0,1-.18-0.03l-16.15-6.67a0.481,0.481,0,0,1-.29-0.43,0.467,0.467,0,0,1,.29-0.42l6.5-2.69a0.467,0.467,0,0,1,.17-0.03,0.484,0.484,0,0,1,.18.03l16.15,6.67a0.456,0.456,0,0,1,0,.85Zm18.71,14.9a0.467,0.467,0,0,1-.29.42l-17,7.02a0.566,0.566,0,0,1-.18.03,0.439,0.439,0,0,1-.46-0.46v-19.88a0.461,0.461,0,0,1,.28-0.43l17-7.02a0.566,0.566,0,0,1,.18-0.03,0.484,0.484,0,0,1,.26.07,0.471,0.471,0,0,1,.21.39v19.89Zm-30.22-.25h-5.66a0.461,0.461,0,0,1-.28-0.83l2.27-1.68a0.957,0.957,0,0,0,.37-0.62,0.948,0.948,0,0,0-.95-1.08,1,1,0,0,0-.57.19l-5.62,4.18a0.3,0.3,0,0,1-.08.08,0.943,0.943,0,0,0-.1.1,0.236,0.236,0,0,1-.05.05,0.076,0.076,0,0,1-.02.04c-0.02.03-.04,0.07-0.06,0.1s-0.03.08-.05,0.12l-0.01.04a0.188,0.188,0,0,0-.02.08,0.277,0.277,0,0,0-.01.09l-0.01.03v0.12l0.01,0.02a0.375,0.375,0,0,0,.01.1,0.185,0.185,0,0,0,.02.07l0.01,0.04c0.02,0.04.03,0.08,0.05,0.12s0.04,0.07.06,0.11c0.01,0.01.01,0.02,0.02,0.03s0.03,0.03.05,0.04a0.357,0.357,0,0,0,.1.11l0.08,0.08,5.62,4.18a0.931,0.931,0,0,0,.57.19,0.948,0.948,0,0,0,.95-1.08,0.954,0.954,0,0,0-.38-0.62l-2.26-1.68a0.455,0.455,0,0,1-.16-0.52,0.467,0.467,0,0,1,.44-0.31h5.66a4.67,4.67,0,1,1,0,9.34h-9.91a0.945,0.945,0,1,0,0,1.89h9.91A6.56,6.56,0,1,0,1250.79,2014.88Z" transform="translate(-1223.925 -1968.5)"/>
</svg>
