<svg xmlns="http://www.w3.org/2000/svg" width="75" height="75" viewBox="0 0 75 75">
  <defs>
    <style>
      .cls-1 {
        fill: #fff;
        fill-rule: evenodd;
      }
    </style>
  </defs>
  <path id="icon-photography-white" class="cls-1" d="M5055.06,2632.62h-7.56a0.463,0.463,0,0,1-.41-0.26l-2.42-4.84a0.933,0.933,0,0,0-.84-0.52h-19.66a0.933,0.933,0,0,0-.84.52l-2.42,4.84a0.463,0.463,0,0,1-.41.26h-1.94a0.459,0.459,0,0,1-.46-0.46v-2.81a0.945,0.945,0,1,0-1.89,0v2.81a0.459,0.459,0,0,1-.46.46h-2.81a0.939,0.939,0,0,0-.94.94v29.5a0.939,0.939,0,0,0,.94.94h42.12a0.939,0.939,0,0,0,.94-0.94v-29.5A0.939,0.939,0,0,0,5055.06,2632.62Zm-0.95,29.03a0.453,0.453,0,0,1-.46.46h-39.3a0.453,0.453,0,0,1-.46-0.46v-26.68a0.453,0.453,0,0,1,.46-0.46h7.02a0.925,0.925,0,0,0,.84-0.53l2.42-4.84a0.472,0.472,0,0,1,.41-0.25h17.92a0.472,0.472,0,0,1,.41.25l2.42,4.84a0.925,0.925,0,0,0,.84.53h7.02a0.453,0.453,0,0,1,.46.46v26.68ZM5034,2634.02a12.18,12.18,0,1,0,12.17,12.18A12.193,12.193,0,0,0,5034,2634.02Zm0,22.47a10.29,10.29,0,1,1,10.29-10.29A10.3,10.3,0,0,1,5034,2656.49Zm0-3.73a6.56,6.56,0,1,1,6.56-6.56A6.564,6.564,0,0,1,5034,2652.76Zm0-11.23a4.675,4.675,0,1,0,4.67,4.67A4.669,4.669,0,0,0,5034,2641.53Zm14.5-2.35h0a0.939,0.939,0,0,1,.94-0.94h0a0.939,0.939,0,0,1,.94.94h0a0.939,0.939,0,0,1-.94.94h0A0.939,0.939,0,0,1,5048.5,2639.18Z" transform="translate(-4996.5 -2608)"/>
</svg>
