<svg xmlns="http://www.w3.org/2000/svg" width="75" height="75" viewBox="0 0 75 75">
  <defs>
    <style>
      .cls-1 {
        fill: #6aaae4;
        fill-rule: evenodd;
      }
    </style>
  </defs>
  <path id="icon-brand-blue" class="cls-1" d="M4524,2666a0.931,0.931,0,0,1-.33-0.07,0.048,0.048,0,0,0-.04-0.01,0.138,0.138,0,0,0-.04-0.03c-0.03-.01-0.06-0.03-0.09-0.04a0.053,0.053,0,0,1-.03-0.02,0.6,0.6,0,0,0-.08-0.08,0.444,0.444,0,0,0-.11-0.08l-21.03-22.43a1.054,1.054,0,0,1-.16-0.26,0.92,0.92,0,0,0-.03-0.09,0.88,0.88,0,0,1-.04-0.2,0.34,0.34,0,0,1-.01-0.1,0.693,0.693,0,0,1,.03-0.2,0.355,0.355,0,0,1,.02-0.1l0.03-.09a0.138,0.138,0,0,0,.03-0.04,0.435,0.435,0,0,0,.04-0.07,0.405,0.405,0,0,0,.05-0.09l8.39-11.19a0.462,0.462,0,0,0,.07-0.07,0.435,0.435,0,0,0,.07-0.06,1.186,1.186,0,0,1,.25-0.18c0.01,0,.02-0.01.03-0.01a1.312,1.312,0,0,1,.31-0.06,0.277,0.277,0,0,0,.09-0.01h25.16c0.03,0.01.06,0.01,0.09,0.02a0.813,0.813,0,0,1,.3.05l0.06,0.03a1.065,1.065,0,0,1,.23.16l0.06,0.06,0.07,0.07h0l8.4,11.19a0.313,0.313,0,0,0,.05.1c0.01,0.02.03,0.04,0.04,0.06a0.138,0.138,0,0,0,.03.04,0.309,0.309,0,0,1,.02.08,0.261,0.261,0,0,1,.03.11,0.68,0.68,0,0,1,.03.19,0.487,0.487,0,0,1-.01.12,0.925,0.925,0,0,1-.04.19,0.539,0.539,0,0,0-.03.1,1.2,1.2,0,0,1-.16.25l-21.03,22.43a1.047,1.047,0,0,0-.11.08,0.6,0.6,0,0,0-.08.08,0.053,0.053,0,0,0-.03.02,0.631,0.631,0,0,1-.09.04,0.138,0.138,0,0,0-.04.03,0.048,0.048,0,0,0-.04.01A0.931,0.931,0,0,1,4524,2666Zm-6.4-22.46a0.457,0.457,0,0,0-.38.2,0.478,0.478,0,0,0-.05.42l6.4,17.06a0.458,0.458,0,0,0,.86,0l6.4-17.06a0.478,0.478,0,0,0-.05-0.42,0.457,0.457,0,0,0-.38-0.2h-12.8Zm15.79,0a0.464,0.464,0,0,0-.43.3l-5.61,14.97a0.45,0.45,0,0,0,.19.55,0.42,0.42,0,0,0,.24.07,0.494,0.494,0,0,0,.34-0.14l14.03-14.97a0.463,0.463,0,0,0,.09-0.5,0.457,0.457,0,0,0-.42-0.28h-8.43Zm-27.21,0a0.457,0.457,0,0,0-.42.28,0.463,0.463,0,0,0,.09.5l14.03,14.97a0.494,0.494,0,0,0,.34.14,0.42,0.42,0,0,0,.24-0.07,0.45,0.45,0,0,0,.19-0.55l-5.61-14.97a0.464,0.464,0,0,0-.43-0.3h-8.43Zm30.87-9.74h-0.07a0.477,0.477,0,0,0-.36.3l-2.6,6.93a0.422,0.422,0,0,0,.05.42,0.457,0.457,0,0,0,.38.2h7.8a0.472,0.472,0,0,0,.41-0.25,0.461,0.461,0,0,0-.04-0.48l-5.2-6.94A0.49,0.49,0,0,0,4537.05,2633.8Zm-13.05-.55a0.446,0.446,0,0,0-.37.18l-5.61,7.49a0.442,0.442,0,0,0-.05.48,0.472,0.472,0,0,0,.41.25h11.24a0.472,0.472,0,0,0,.41-0.25,0.442,0.442,0,0,0-.05-0.48l-5.61-7.49A0.459,0.459,0,0,0,4524,2633.25Zm-13.05.55a0.49,0.49,0,0,0-.37.18l-5.2,6.94a0.461,0.461,0,0,0-.04.48,0.472,0.472,0,0,0,.41.25h7.8a0.457,0.457,0,0,0,.38-0.2,0.422,0.422,0,0,0,.05-0.42l-2.6-6.93a0.477,0.477,0,0,0-.36-0.3h-0.07Zm15.86-1.49a0.456,0.456,0,0,0-.37.74l5.2,6.93a0.446,0.446,0,0,0,.37.18h0.06a0.465,0.465,0,0,0,.37-0.29l2.6-6.94a0.478,0.478,0,0,0-.05-0.42,0.457,0.457,0,0,0-.38-0.2h-7.8Zm-13.42,0a0.457,0.457,0,0,0-.38.2,0.478,0.478,0,0,0-.05.42l2.6,6.94a0.465,0.465,0,0,0,.37.29h0.06a0.446,0.446,0,0,0,.37-0.18l5.2-6.93a0.456,0.456,0,0,0-.37-0.74h-7.8Zm23.24-5.62a0.939,0.939,0,0,1-.94-0.94v-2.81a0.945,0.945,0,0,1,1.89,0v2.81A0.947,0.947,0,0,1,4536.63,2626.69Zm5.62,4.21a0.94,0.94,0,0,1,0-1.88h2.81a0.94,0.94,0,1,1,0,1.88h-2.81Zm-39.31,0a0.94,0.94,0,0,1,0-1.88h2.81a0.94,0.94,0,1,1,0,1.88h-2.81Zm8.43-4.21a0.947,0.947,0,0,1-.95-0.94v-2.81a0.945,0.945,0,0,1,1.89,0v2.81A0.939,0.939,0,0,1,4511.37,2626.69Z" transform="translate(-4486.5 -2606.5)"/>
</svg>
