<svg xmlns="http://www.w3.org/2000/svg" width="75" height="75" viewBox="0 0 75 75">
  <defs>
    <style>
      .cls-1 {
        fill: #6aaae4;
        fill-rule: evenodd;
      }
    </style>
  </defs>
  <path id="icon_conceptual" class="cls-1" d="M549.722,1392.82a0.471,0.471,0,0,1,.01-0.67l5.049-4.74a0.111,0.111,0,0,1,.037-0.04,0.5,0.5,0,0,1,.04-0.04l4.191-4.18c2.943-2.94,2.823-7.49-.28-10.59a8.55,8.55,0,0,0-5.978-2.54,6.9,6.9,0,0,0-4.923,1.97l-4.223,4.21-5.114,4.81a0.441,0.441,0,0,1-.317.13,0.461,0.461,0,0,1-.326-0.14l-10.749-10.72a0.936,0.936,0,0,0-1.335,0l-8.44,8.42a0.939,0.939,0,0,0,0,1.33l10.438,10.42a0.465,0.465,0,0,1,.135.33,0.442,0.442,0,0,1-.145.33l-6.162,5.79a0.122,0.122,0,0,1-.029.04,0.767,0.767,0,0,0-.191.27,0.5,0.5,0,0,0-.029.07,0.6,0.6,0,0,1-.041.09l-4.219,15.44a0.95,0.95,0,0,0,.282.95,0.966,0.966,0,0,0,.629.24,0.85,0.85,0,0,0,.351-0.07l14.065-5.61a1.063,1.063,0,0,0,.268-0.18c0.023-.02.045-0.03,0.064-0.05l5.877-5.52-0.028.03a0.98,0.98,0,0,1,1.351,0l11.14,11.12a0.937,0.937,0,0,0,1.336,0l8.439-8.42a0.937,0.937,0,0,0,0-1.33Zm0.781-20.4a5.226,5.226,0,0,1,2.268-.51,6.744,6.744,0,0,1,4.662,1.99,5.53,5.53,0,0,1,1.2,6.67,0.477,0.477,0,0,1-.34.23h-0.065a0.445,0.445,0,0,1-.326-0.13l-7.52-7.51a0.452,0.452,0,0,1-.129-0.4A0.486,0.486,0,0,1,550.5,1372.42Zm-4.524,4.12,2.231-2.22a0.45,0.45,0,0,1,.652,0l7.857,7.84a0.459,0.459,0,0,1,0,.65l-2.231,2.23a0.475,0.475,0,0,1-.653,0l-7.856-7.85A0.459,0.459,0,0,1,545.979,1376.54Zm-26.284,3.15a0.459,0.459,0,0,1,0-.65l6.45-6.44a0.475,0.475,0,0,1,.653,0l2.231,2.23a0.459,0.459,0,0,1,0,.65l-1.819,1.82a0.939,0.939,0,0,0,0,1.33,0.961,0.961,0,0,0,1.336,0l1.818-1.82a0.475,0.475,0,0,1,.653,0l1.528,1.53a0.459,0.459,0,0,1,0,.65l-1.819,1.81a0.95,0.95,0,0,0,0,1.34,0.96,0.96,0,0,0,1.335,0l1.819-1.82a0.475,0.475,0,0,1,.653,0l1.958,1.96a0.457,0.457,0,0,1,.135.33,0.465,0.465,0,0,1-.144.33l-6.643,6.25a0.473,0.473,0,0,1-.317.12,0.454,0.454,0,0,1-.326-0.13Zm4.259,17.62,20.016-18.82a0.441,0.441,0,0,1,.318-0.13,0.465,0.465,0,0,1,.326.14l2.952,2.94a0.469,0.469,0,0,1,.136.34,0.486,0.486,0,0,1-.146.33L527.5,1400.89a0.468,0.468,0,0,1-.315.12,0.455,0.455,0,0,1-.327-0.13l-2.912-2.91a0.465,0.465,0,0,1-.135-0.33A0.449,0.449,0,0,1,523.954,1397.31Zm-0.216,12.45-3.434,1.37a0.349,0.349,0,0,1-.171.04,0.449,0.449,0,0,1-.308-0.12,0.461,0.461,0,0,1-.138-0.46l1.03-3.78a0.47,0.47,0,0,1,.327-0.32,0.479,0.479,0,0,1,.119-0.01,0.445,0.445,0,0,1,.326.13l2.4,2.4a0.464,0.464,0,0,1,.125.42A0.441,0.441,0,0,1,523.738,1409.76Zm6.029-2.4-2.748,1.09a1,1,0,0,1-1.263-.25l-4.067-4.06a0.445,0.445,0,0,1-.119-0.44l0.956-3.5a0.48,0.48,0,0,1,.327-0.33,0.475,0.475,0,0,1,.119-0.01,0.493,0.493,0,0,1,.326.13l6.623,6.61a0.462,0.462,0,0,1,.126.42A0.477,0.477,0,0,1,529.767,1407.36Zm2.676-1.54a0.484,0.484,0,0,1-.317.13,0.465,0.465,0,0,1-.326-0.14l-2.953-2.95a0.433,0.433,0,0,1-.135-0.33,0.481,0.481,0,0,1,.146-0.33l20.057-18.78a0.471,0.471,0,0,1,.316-0.12,0.454,0.454,0,0,1,.326.13l2.912,2.91a0.465,0.465,0,0,1,.135.33,0.458,0.458,0,0,1-.145.33Zm26.122-.86-6.451,6.44a0.474,0.474,0,0,1-.652,0l-10.087-10.07a0.96,0.96,0,0,1-.01-1.31l6.318-5.94a0.476,0.476,0,0,1,.318-0.12,0.456,0.456,0,0,1,.326.13l2.5,2.5a0.457,0.457,0,0,1,0,.65l-1.818,1.81a0.951,0.951,0,0,0,0,1.34,0.96,0.96,0,0,0,1.335,0l1.819-1.82a0.475,0.475,0,0,1,.653,0l1.527,1.53a0.457,0.457,0,0,1,0,.65l-1.818,1.81a0.949,0.949,0,0,0,0,1.34,0.961,0.961,0,0,0,1.336,0l1.818-1.82a0.475,0.475,0,0,1,.653,0l2.231,2.23A0.459,0.459,0,0,1,558.565,1404.96Z" transform="translate(-501.641 -1354.5)"/>
</svg>
