<svg xmlns="http://www.w3.org/2000/svg" width="75" height="75" viewBox="0 0 75 75">
  <defs>
    <style>
      .cls-1 {
        fill: #6aaae4;
        fill-rule: evenodd;
      }
    </style>
  </defs>
  <path id="icon_permitting" class="cls-1" d="M559.653,1679.44H534.385a2.349,2.349,0,0,0-2.347,2.35v2.15a0.467,0.467,0,0,1-.166.35l-5.615,4.68a0.465,0.465,0,0,1-.295.11,0.651,0.651,0,0,1-.195-0.04,0.468,0.468,0,0,1-.266-0.42v-4.02a0.95,0.95,0,0,0-.943-0.95h-4.211a0.456,0.456,0,0,1-.461-0.46v-16.84a0.456,0.456,0,0,1,.461-0.46h25.268a0.456,0.456,0,0,1,.461.46v9.82a0.943,0.943,0,1,0,1.886,0v-9.82a2.349,2.349,0,0,0-2.347-2.35H520.347a2.349,2.349,0,0,0-2.347,2.35v16.84a2.349,2.349,0,0,0,2.347,2.35h2.807a0.463,0.463,0,0,1,.461.46v5.62a0.951,0.951,0,0,0,.544.85,0.92,0.92,0,0,0,.4.09,0.952,0.952,0,0,0,.6-0.22l6.12-5.1a0.467,0.467,0,0,1,.295-0.11,0.479,0.479,0,0,1,.461.46v11.04a2.349,2.349,0,0,0,2.347,2.35H546.51a0.459,0.459,0,0,1,.295.11l8.031,6.69a0.958,0.958,0,0,0,.606.22,0.927,0.927,0,0,0,.4-0.09,0.942,0.942,0,0,0,.543-0.85v-5.62a0.463,0.463,0,0,1,.46-0.46h2.808a2.349,2.349,0,0,0,2.347-2.35v-16.84A2.349,2.349,0,0,0,559.653,1679.44Zm0.461,19.19a0.457,0.457,0,0,1-.461.46h-4.211a0.95,0.95,0,0,0-.943.95v4.02a0.468,0.468,0,0,1-.266.42,0.443,0.443,0,0,1-.195.04,0.465,0.465,0,0,1-.295-0.11l-6.119-5.1a0.957,0.957,0,0,0-.605-0.22H534.385a0.456,0.456,0,0,1-.461-0.46v-16.84a0.456,0.456,0,0,1,.461-0.46h25.268a0.457,0.457,0,0,1,.461.46v16.84Zm-6.076-12.17H540a0.945,0.945,0,0,0,0,1.89h14.038A0.945,0.945,0,0,0,554.038,1686.46Zm0,5.62H540a0.94,0.94,0,1,0,0,1.88h14.038A0.94,0.94,0,1,0,554.038,1692.08Zm-13.1-20.12a0.941,0.941,0,0,0-.943-0.94H525.962a0.94,0.94,0,1,0,0,1.88H540A0.941,0.941,0,0,0,540.943,1671.96Zm-14.981,4.67a0.945,0.945,0,0,0,0,1.89h4.211a0.945,0.945,0,0,0,0-1.89h-4.211Z" transform="translate(-502.5 -1648.5)"/>
</svg>
