<svg xmlns="http://www.w3.org/2000/svg" width="75" height="75" viewBox="0 0 75 75">
  <defs>
    <style>
      .cls-1 {
        fill: #fff;
        fill-rule: evenodd;
      }
    </style>
  </defs>
  <path id="icon-targets-white" class="cls-1" d="M2987.14,2129.2a0.939,0.939,0,0,0-.85-0.56,0.853,0.853,0,0,0-.39.08,0.913,0.913,0,0,0-.5.52,0.946,0.946,0,0,0,.02.72,20.109,20.109,0,1,1-38.54,8.04,20.1,20.1,0,0,1,28.15-18.44,0.936,0.936,0,0,0,1.24-.49,0.9,0.9,0,0,0,.01-0.72,0.944,0.944,0,0,0-.5-0.52A21.99,21.99,0,1,0,2987.14,2129.2Zm-14.54-3.12a0.952,0.952,0,0,0,.86-0.57,0.939,0.939,0,0,0-.49-1.24,14.786,14.786,0,0,0-5.99-1.25,14.98,14.98,0,1,0,14.98,14.98,14.82,14.82,0,0,0-1.25-5.99,0.952,0.952,0,0,0-.86-0.57,1,1,0,0,0-.38.08,0.944,0.944,0,0,0-.5.52,0.927,0.927,0,0,0,.02.73,13.08,13.08,0,1,1-6.77-6.78A0.849,0.849,0,0,0,2972.6,2126.08Zm-5.62,5.84a6.082,6.082,0,0,1,1.22.12,0.615,0.615,0,0,0,.19.02,0.944,0.944,0,0,0,.18-1.87,8.4,8.4,0,0,0-1.59-.15,7.96,7.96,0,1,0,7.96,7.96,7.754,7.754,0,0,0-.16-1.6,0.952,0.952,0,0,0-.93-0.76,0.991,0.991,0,0,0-.18.02,0.955,0.955,0,0,0-.74,1.11,6.409,6.409,0,0,1,.12,1.23A6.07,6.07,0,1,1,2966.98,2131.92Zm8.95-9.72a1.1,1.1,0,0,0-.07.36v5.03a0.507,0.507,0,0,1-.13.33l-9.41,9.41a0.936,0.936,0,0,0,0,1.33,0.924,0.924,0,0,0,.66.28,0.947,0.947,0,0,0,.67-0.28l9.41-9.41a0.438,0.438,0,0,1,.32-0.13h5.04a0.937,0.937,0,0,0,.36-0.08,1.265,1.265,0,0,0,.31-0.2l5.6-5.62a0.9,0.9,0,0,0,.21-0.3,0.994,0.994,0,0,0,0-.72,0.979,0.979,0,0,0-.87-0.59h-4.21a0.453,0.453,0,0,1-.46-0.46v-4.21a1.149,1.149,0,0,0-.07-0.36,0.978,0.978,0,0,0-.51-0.51,0.922,0.922,0,0,0-.36-0.07,0.925,0.925,0,0,0-.67.28l-5.61,5.61A0.945,0.945,0,0,0,2975.93,2122.2Zm1.82,0.94a0.507,0.507,0,0,1,.13-0.33l2.81-2.8a0.448,0.448,0,0,1,.32-0.14,0.566,0.566,0,0,1,.18.03,0.471,0.471,0,0,1,.28.43v2.23a0.947,0.947,0,0,0,.95.94h2.22a0.461,0.461,0,0,1,.43.28,0.48,0.48,0,0,1-.1.51l-2.81,2.8a0.431,0.431,0,0,1-.32.14h-3.63a0.459,0.459,0,0,1-.46-0.46v-3.63Z" transform="translate(-2929.5 -2100.5)"/>
</svg>
