<svg xmlns="http://www.w3.org/2000/svg" width="75" height="75" viewBox="0 0 75 75">
  <defs>
    <style>
      .cls-1 {
        fill: #6aaae4;
        fill-rule: evenodd;
      }
    </style>
  </defs>
  <path id="icon-influence-blue" class="cls-1" d="M2475.05,2139.86h-2.81a0.459,0.459,0,0,1-.46-0.46v-6.9a3.891,3.891,0,0,0-3.02-3.77,0.442,0.442,0,0,1-.29-0.19l-8.07-12.12a0.959,0.959,0,0,0-.79-0.42,0.947,0.947,0,0,0-.49.13l-6.21,3.73a0.429,0.429,0,0,1-.51-0.03l-4.86-3.64a0.944,0.944,0,0,0-1.31.17l-9.4,12.1a0.48,0.48,0,0,1-.37.17h-0.6a3.871,3.871,0,0,0-3.86,3.87v23.63a3.871,3.871,0,0,0,3.86,3.87h32.06a3.871,3.871,0,0,0,3.86-3.87v-5.5a0.465,0.465,0,0,1,.46-0.46h2.81a0.947,0.947,0,0,0,.95-0.94v-8.42A0.956,0.956,0,0,0,2475.05,2139.86Zm-20.18-18.97,4.08-2.45a0.4,0.4,0,0,1,.24-0.07,0.467,0.467,0,0,1,.38.21l6.22,9.34a0.423,0.423,0,0,1,.02.47,0.436,0.436,0,0,1-.4.24h-1.12a0.468,0.468,0,0,1-.28-0.09l-9.18-6.89a0.465,0.465,0,0,1-.19-0.39A0.457,0.457,0,0,1,2454.87,2120.89Zm-15.21,7,7.22-9.28a0.441,0.441,0,0,1,.36-0.18,0.514,0.514,0,0,1,.28.09l12.37,9.28a0.471,0.471,0,0,1,.16.52,0.453,0.453,0,0,1-.44.31h-2.38a0.484,0.484,0,0,1-.26-0.07l-8.07-5.38a0.887,0.887,0,0,0-.52-0.16,0.9,0.9,0,0,0-.75.38l-3.79,5.05a0.459,0.459,0,0,1-.37.18h-3.45A0.46,0.46,0,0,1,2439.66,2127.89Zm12.95,0.42a0.462,0.462,0,0,1-.44.32h-5.19a0.476,0.476,0,0,1-.42-0.25,0.463,0.463,0,0,1,.05-0.48l1.73-2.31a0.455,0.455,0,0,1,.37-0.19,0.49,0.49,0,0,1,.25.08l3.46,2.31A0.46,0.46,0,0,1,2452.61,2128.31Zm17.29,27.82a1.985,1.985,0,0,1-1.98,1.98h-32.06a1.985,1.985,0,0,1-1.98-1.98V2132.5a1.985,1.985,0,0,1,1.98-1.98h32.06a1.985,1.985,0,0,1,1.98,1.98v6.9a0.459,0.459,0,0,1-.46.46h-4.22a5.155,5.155,0,0,0,0,10.31h4.22a0.465,0.465,0,0,1,.46.46v5.5Zm4.21-8.3a0.465,0.465,0,0,1-.46.46h-8.43a3.27,3.27,0,0,1,0-6.54h8.43a0.465,0.465,0,0,1,.46.46v5.62Zm-8.81-3.76a0.945,0.945,0,1,0,.95.95A0.947,0.947,0,0,0,2465.3,2144.07Zm-26.75-8.42a0.947,0.947,0,0,0-.94.95v15.44a0.945,0.945,0,0,0,1.89,0V2136.6A0.956,0.956,0,0,0,2438.55,2135.65Z" transform="translate(-2416.5 -2100.5)"/>
</svg>
