<svg xmlns="http://www.w3.org/2000/svg" width="75" height="75" viewBox="0 0 75 75">
  <defs>
    <style>
      .cls-1 {
        fill: #6aaae4;
        fill-rule: evenodd;
      }
    </style>
  </defs>
  <path id="icon_leasing" class="cls-1" d="M1242.83,1708a0.842,0.842,0,0,1-.35-0.07,0.949,0.949,0,0,1-.58-0.87v-42.12a0.937,0.937,0,0,1,.93-0.94h36.16a0.937,0.937,0,0,1,.93.94v42.12a0.949,0.949,0,0,1-.58.87,0.842,0.842,0,0,1-.35.07,0.907,0.907,0,0,1-.66-0.28l-4.44-4.47a0.463,0.463,0,0,0-.32-0.13h-0.03a0.457,0.457,0,0,0-.33.18l-3.21,4.32a0.92,0.92,0,0,1-1.49,0l-3.06-4.11a0.455,0.455,0,0,0-.37-0.19,0.437,0.437,0,0,0-.36.19l-3.06,4.11a0.928,0.928,0,0,1-.75.38,0.91,0.91,0,0,1-.74-0.38l-3.07-4.12a0.455,0.455,0,0,0-.36-0.18h0a0.474,0.474,0,0,0-.37.18l-3.06,4.12a0.92,0.92,0,0,1-1.49,0l-3.2-4.32a0.5,0.5,0,0,0-.34-0.18h-0.03a0.463,0.463,0,0,0-.32.13l-4.43,4.47A0.947,0.947,0,0,1,1242.83,1708Zm13.91-7.5a0.91,0.91,0,0,1,.74.38l3.07,4.11a0.437,0.437,0,0,0,.36.19h0a0.455,0.455,0,0,0,.37-0.19l3.05-4.11a0.979,0.979,0,0,1,1.5,0l3.06,4.11a0.437,0.437,0,0,0,.36.19h0a0.455,0.455,0,0,0,.37-0.19l3.05-4.11a0.929,0.929,0,0,1,.68-0.38h0.07a0.938,0.938,0,0,1,.66.27l3.19,3.23a0.507,0.507,0,0,0,.33.13,0.555,0.555,0,0,0,.17-0.03,0.461,0.461,0,0,0,.28-0.43v-37.32a0.45,0.45,0,0,0-.45-0.46h-33.37a0.453,0.453,0,0,0-.46.46v37.32a0.461,0.461,0,0,0,.28.43,0.566,0.566,0,0,0,.18.03,0.5,0.5,0,0,0,.32-0.13l3.19-3.23a0.951,0.951,0,0,1,.65-0.27h0.07a0.931,0.931,0,0,1,.69.38l3.05,4.11a0.451,0.451,0,0,0,.36.19h0.01a0.451,0.451,0,0,0,.36-0.19l3.06-4.11A0.915,0.915,0,0,1,1256.74,1700.5Zm13.9-14.96a0.937,0.937,0,0,1-.93-0.94v-0.2a0.453,0.453,0,0,0-.32-0.44,3.78,3.78,0,0,1-2.4-2.23,0.97,0.97,0,0,1,.02-0.73,0.927,0.927,0,0,1,.52-0.49,0.96,0.96,0,0,1,.33-0.06,0.94,0.94,0,0,1,.88.61,2.08,2.08,0,0,0,3.19.67,1.667,1.667,0,0,0,.56-1.23c0-1.02-1.37-1.72-2.19-2.05-2.93-1.16-3.37-2.87-3.37-3.79a3.5,3.5,0,0,1,1.17-2.63,3.954,3.954,0,0,1,1.3-.78,0.45,0.45,0,0,0,.31-0.43v-0.26a0.935,0.935,0,1,1,1.87,0v0.2a0.462,0.462,0,0,0,.32.44,3.755,3.755,0,0,1,2.4,2.23,0.936,0.936,0,0,1-.55,1.21,0.884,0.884,0,0,1-.33.07,0.951,0.951,0,0,1-.87-0.61,2.086,2.086,0,0,0-3.2-.68,1.684,1.684,0,0,0-.55,1.24c0,1.02,1.37,1.71,2.19,2.04,2.93,1.16,3.37,2.88,3.37,3.8a3.573,3.573,0,0,1-1.17,2.63,3.909,3.909,0,0,1-1.31.77,0.468,0.468,0,0,0-.3.44v0.26A0.939,0.939,0,0,1,1270.64,1685.54Zm-22.24-12.63a0.945,0.945,0,0,1,0-1.89h2.78a0.945,0.945,0,0,1,0,1.89h-2.78Zm8.34,0a0.945,0.945,0,0,1,0-1.89h5.56a0.945,0.945,0,0,1,0,1.89h-5.56Zm-8.34,5.61a0.945,0.945,0,0,1,0-1.89h2.78a0.945,0.945,0,0,1,0,1.89h-2.78Zm8.34,0a0.945,0.945,0,0,1,0-1.89h5.56a0.945,0.945,0,0,1,0,1.89h-5.56Zm-8.34,5.62a0.945,0.945,0,0,1,0-1.89h2.78a0.945,0.945,0,0,1,0,1.89h-2.78Zm8.34,0a0.945,0.945,0,0,1,0-1.89h5.56a0.945,0.945,0,0,1,0,1.89h-5.56Zm-1.39,12.63a0.945,0.945,0,0,1,0-1.89h8.34a0.945,0.945,0,0,1,0,1.89h-8.34Zm13.9,0a0.945,0.945,0,0,1,0-1.89h4.17a0.945,0.945,0,0,1,0,1.89h-4.17Zm-20.85-5.62a0.94,0.94,0,0,1,0-1.88h25.02a0.94,0.94,0,1,1,0,1.88H1248.4Z" transform="translate(-1223.41 -1648.5)"/>
</svg>
