<svg xmlns="http://www.w3.org/2000/svg" width="75" height="75" viewBox="0 0 75 75">
  <defs>
    <style>
      .cls-1 {
        fill: #fff;
        fill-rule: evenodd;
      }
    </style>
  </defs>
  <path id="icon-strategy-white" class="cls-1" d="M5018,2189.69a2.013,2.013,0,0,1-2-2.02v-5.57h-1a5.023,5.023,0,0,1-5-5.04v-23.2a5.025,5.025,0,0,1,5-5.05h29a5.025,5.025,0,0,1,5,5.05v23.2a5.023,5.023,0,0,1-5,5.04h-17.88l-6.68,6.97A1.977,1.977,0,0,1,5018,2189.69Zm-3-38.86a3.022,3.022,0,0,0-3,3.03v23.2a3.02,3.02,0,0,0,3,3.02h2a1,1,0,0,1,1,1.01v6.58l6.98-7.28a0.992,0.992,0,0,1,.72-0.31H5044a3.02,3.02,0,0,0,3-3.02v-23.2a3.022,3.022,0,0,0-3-3.03h-29Zm35,43.97a1.969,1.969,0,0,1-1.41-.6l-6-6.05H5034a5.023,5.023,0,0,1-5-5.04h2a3.013,3.013,0,0,0,3,3.02h9a1,1,0,0,1,.71.3l6.29,6.35v-5.64a1,1,0,0,1,1-1.01h2a3.013,3.013,0,0,0,3-3.02v-15.13a3.022,3.022,0,0,0-3-3.03h-3v-2.02h3a5.032,5.032,0,0,1,5,5.05v15.13a5.023,5.023,0,0,1-5,5.04h-1v4.63a2,2,0,0,1-1.23,1.86A2.081,2.081,0,0,1,5050,2194.8Zm-19.12-16.74h-2.76a2.091,2.091,0,0,1-2.12-1.93v-1.53a4.9,4.9,0,0,1-.46-0.21l-0.2-.11-0.99,1.03a1.9,1.9,0,0,1-2.71.01l-1.95-1.96a1.931,1.931,0,0,1,0-2.74l0.97-.96v-0.02a4.437,4.437,0,0,1-.31-0.65h-1.43a2.1,2.1,0,0,1-1.92-2.14v-2.79a2.1,2.1,0,0,1,1.92-2.14h1.43a4.291,4.291,0,0,1,.26-0.56l0.09-.16-1.03-.99a1.947,1.947,0,0,1,.01-2.73l1.95-1.97a1.941,1.941,0,0,1,2.71-.01l0.99,1.01,0.08-.04c0.2-.09.38-0.18,0.59-0.26v-1.43a2.091,2.091,0,0,1,2.12-1.93h2.76a2.091,2.091,0,0,1,2.12,1.93v1.43a4.911,4.911,0,0,1,.46.22l0.2,0.1,0.99-1.02a1.9,1.9,0,0,1,2.71,0l1.96,1.97a1.956,1.956,0,0,1,0,2.73l-0.99.99a6.58,6.58,0,0,1,.32.72h1.43a2.1,2.1,0,0,1,1.92,2.14v2.79a2.1,2.1,0,0,1-1.92,2.14h-1.43a3.844,3.844,0,0,1-.27.54l-0.05.09,0.97,0.97a1.913,1.913,0,0,1,.57,1.37,1.886,1.886,0,0,1-.56,1.38l-1.94,1.96a1.868,1.868,0,0,1-1.35.57h-0.01a1.868,1.868,0,0,1-1.35-.57l-0.99-1-0.08.04c-0.2.09-.38,0.18-0.58,0.26l-0.01,1.53A2.091,2.091,0,0,1,5030.88,2178.06ZM5028,2176a0.385,0.385,0,0,0,.12.05h2.76a0.385,0.385,0,0,0,.12-0.05v-1.42a1.855,1.855,0,0,1,1.21-1.83c0.19-.07.34-0.15,0.51-0.23l0.14-.06a1.883,1.883,0,0,1,2.18.36l0.97,1,1.83-1.85-0.96-.96a1.911,1.911,0,0,1-.35-2.27l0.12-.23a1.2,1.2,0,0,0,.15-0.3,1.846,1.846,0,0,1,1.83-1.24h1.32a0.237,0.237,0,0,0,.05-0.12v-2.79a0.237,0.237,0,0,0-.05-0.12h-1.32a1.841,1.841,0,0,1-1.83-1.24,3.132,3.132,0,0,0-.24-0.55,1.959,1.959,0,0,1,.3-2.32l0.98-.98-1.84-1.86-0.99,1a1.913,1.913,0,0,1-2.2.36,1.828,1.828,0,0,1-.28-0.14,3.519,3.519,0,0,0-.33-0.15,1.847,1.847,0,0,1-1.2-1.83v-1.32a1.041,1.041,0,0,0-.12-0.05h-2.76a1.041,1.041,0,0,0-.12.05v1.32a1.864,1.864,0,0,1-1.21,1.83c-0.19.07-.34,0.15-0.52,0.23l-0.13.06a1.883,1.883,0,0,1-2.18-.36l-0.97-1-1.84,1.86,0.99,1.01a1.94,1.94,0,0,1,.34,2.25l-0.12.22a2.035,2.035,0,0,0-.16.36,1.836,1.836,0,0,1-1.83,1.25h-1.32a0.235,0.235,0,0,0-.05.13v2.78a0.237,0.237,0,0,0,.05.12h1.32a1.846,1.846,0,0,1,1.83,1.24,2.669,2.669,0,0,0,.22.48l0.05,0.1a1.914,1.914,0,0,1-.35,2.25l-0.96.95,1.83,1.84,0.99-1a1.929,1.929,0,0,1,2.21-.37c0.1,0.05.19,0.09,0.27,0.14,0.11,0.05.2,0.1,0.33,0.15a1.855,1.855,0,0,1,1.21,1.83V2176Zm9.9-4.09h0Zm-8.4-1.92a4.535,4.535,0,1,1,4.5-4.53A4.52,4.52,0,0,1,5029.5,2169.99Zm0-7.06a2.525,2.525,0,1,0,2.5,2.53A2.52,2.52,0,0,0,5029.5,2162.93Z" transform="translate(-4996.5 -2134.295)"/>
</svg>
