<svg id="Layer_1" data-name="Layer 1" xmlns="http://www.w3.org/2000/svg" viewBox="0 0 69.947 69.947"><title>icon-post-submit-white</title><path d="M60.574,45.943a1.506,1.506,0,0,1-.962-.348L46.845,34.955a.733.733,0,0,0-.469-.17H42.721a1.5,1.5,0,0,1,0-3h4.463a1.508,1.508,0,0,1,.962.347l9.728,8.108a.73.73,0,0,0,.469.17.721.721,0,0,0,.31-.069.731.731,0,0,0,.422-.663V33.286a1.5,1.5,0,0,1,1.5-1.5h6.7A.732.732,0,0,0,68,31.054V4.274a.732.732,0,0,0-.732-.732H4.783a.732.732,0,0,0-.732.732v26.78a.733.733,0,0,0,.732.733H15.941a1.5,1.5,0,1,1,0,3H4.783a3.735,3.735,0,0,1-3.73-3.731V4.274A3.734,3.734,0,0,1,4.783.544H67.269A3.735,3.735,0,0,1,71,4.274v26.78a3.736,3.736,0,0,1-3.731,3.731H62.806a.733.733,0,0,0-.733.732v8.927a1.5,1.5,0,0,1-1.5,1.5Z" transform="translate(-1.053 -0.544)" style="fill:#fff"/><path d="M13.71,14.7a1.5,1.5,0,0,1,0-3H58.343a1.5,1.5,0,0,1,0,3Z" transform="translate(-1.053 -0.544)" style="fill:#fff"/><path d="M42.721,23.627a1.5,1.5,0,0,1,0-3H58.343a1.5,1.5,0,0,1,0,3Z" transform="translate(-1.053 -0.544)" style="fill:#fff"/><path d="M13.71,23.627a1.5,1.5,0,0,1,0-3h4.463a1.5,1.5,0,0,1,0,3Z" transform="translate(-1.053 -0.544)" style="fill:#fff"/><path d="M22.56,70.491a1.5,1.5,0,0,1,0-3h17.4a6.6,6.6,0,0,0,2.768-.631.731.731,0,0,0,.355-.479,5.244,5.244,0,0,0,.118-1.044.726.726,0,0,0-.192-.482,5.02,5.02,0,0,1-.27-.6,2.457,2.457,0,0,1,.594-2.707,3.189,3.189,0,0,1,1.068-.592.819.819,0,0,0,.091-.041,1.121,1.121,0,0,0,.585-1.208A.743.743,0,0,0,45,59.5a2.828,2.828,0,0,1-.463-2.435,3.2,3.2,0,0,1,1.22-1.525c.988-.714,1.549-1.309,1.666-1.769a.73.73,0,0,0-.126-.624c-.037-.048-.112-.155-.178-.252a.789.789,0,0,0-.072-.09,2.217,2.217,0,0,1-.475-2.536,4.552,4.552,0,0,1,.741-1l.2-.222a1.776,1.776,0,0,0,.408-1.123.723.723,0,0,0-.092-.391c-.162-.293-.42-.744-.7-1.231a.734.734,0,0,0-.633-.363H35.179a1.507,1.507,0,0,1-1.494-1.372c-.045-.536-1.1-13.11-1.144-14.553a6.079,6.079,0,0,0-.468-2.278,4.419,4.419,0,0,0-.868-1.307,2,2,0,0,0-1.48-.576,2.812,2.812,0,0,0-.6.064c-.973.194-1.446.442-1.616.852a4.837,4.837,0,0,0-.105,2.115,11.269,11.269,0,0,1,.018,2.051l-.036.456c-1.186,16-8.15,20.3-13.783,21.094a.732.732,0,0,0-.631.725v14.1a3.162,3.162,0,0,1-3.142,3.175H4.2a3.162,3.162,0,0,1-3.142-3.175V48.353A3.163,3.163,0,0,1,4.2,45.176h5.64a3.163,3.163,0,0,1,3.142,3.177v.308a.732.732,0,0,0,.733.732.743.743,0,0,0,.148-.015c6.108-1.263,9.753-7.557,10.542-18.2l.006-.078c.017-.225.03-.392.043-.495a8.583,8.583,0,0,0-.032-1.5,7.146,7.146,0,0,1,.379-3.6,4.827,4.827,0,0,1,3.756-2.527,5.727,5.727,0,0,1,1.165-.121,5.008,5.008,0,0,1,3.639,1.486,7.406,7.406,0,0,1,1.467,2.2,9.1,9.1,0,0,1,.717,3.4c.027,1.056.743,9.708.962,12.334a.733.733,0,0,0,.729.672H47.762a1.506,1.506,0,0,1,1.288.732c1.786,3,1.8,3.15,1.836,3.515a5.025,5.025,0,0,1-.974,3.654.732.732,0,0,0-.062.811,5.1,5.1,0,0,1,.444.99c.5,1.7-.242,3.318-2.274,4.939a.732.732,0,0,0-.213.87,2.962,2.962,0,0,1,.152.414A4.135,4.135,0,0,1,46.3,63.351a.732.732,0,0,0-.287.864,2.86,2.86,0,0,1,.155.629,6.059,6.059,0,0,1-.812,3.684c-1.258,1.545-4.077,1.959-5.391,1.963ZM4.783,48.175a.732.732,0,0,0-.732.732V66.76a.733.733,0,0,0,.732.733H9.247a.733.733,0,0,0,.732-.733V48.907a.732.732,0,0,0-.732-.732Z" transform="translate(-1.053 -0.544)" style="fill:#fff"/></svg>