<svg xmlns="http://www.w3.org/2000/svg" width="75" height="75" viewBox="0 0 75 75">
  <defs>
    <style>
      .cls-1 {
        fill: #6aaae4;
        fill-rule: evenodd;
      }
    </style>
  </defs>
  <path id="icon-updates-blue" class="cls-1" d="M1415.63,2105h-37.26a3.323,3.323,0,0,0-3.37,2.99v37.26a3.5,3.5,0,0,0,3.37,3.75h15.82a0.945,0.945,0,1,0,0-1.89h-15.82a1.626,1.626,0,0,1-1.48-1.86v-26.67a0.453,0.453,0,0,1,.46-0.46h39.3a0.453,0.453,0,0,1,.46.46v19.65a0.945,0.945,0,0,0,1.89,0v-30.24A3.323,3.323,0,0,0,1415.63,2105Zm1.48,10.77a0.459,0.459,0,0,1-.46.46h-39.3a0.459,0.459,0,0,1-.46-0.46v-7.83a1.543,1.543,0,0,1,1.48-1.05h37.26a1.542,1.542,0,0,1,1.48,1.03v7.85Zm-35.55-5.15a0.94,0.94,0,1,0,.94.94A0.939,0.939,0,0,0,1381.56,2110.62Zm7.54,0a0.94,0.94,0,1,0,.95.94A0.939,0.939,0,0,0,1389.1,2110.62Zm-3.77,0a0.94,0.94,0,1,0,.94.94A0.939,0.939,0,0,0,1385.33,2110.62Zm6.05,15.92h11.24a3.265,3.265,0,0,1,3.26,3.27,0.945,0.945,0,0,0,1.89,0,5.155,5.155,0,0,0-5.15-5.16h-11.24a5.155,5.155,0,0,0,0,10.31h1.41a0.94,0.94,0,1,0,0-1.88h-1.41A3.27,3.27,0,0,1,1391.38,2126.54Zm18.19,12.1a0.459,0.459,0,0,1,0-.65l1.85-1.86a0.9,0.9,0,0,0,.24-0.92,0.925,0.925,0,0,0-.69-0.66l-12.35-2.85a0.761,0.761,0,0,0-.21-0.03,0.929,0.929,0,0,0-.67.28,0.955,0.955,0,0,0-.26.88l2.86,12.35a0.925,0.925,0,0,0,.66.69,0.746,0.746,0,0,0,.26.04,0.956,0.956,0,0,0,.66-0.27l1.86-1.86a0.471,0.471,0,0,1,.33-0.14,0.466,0.466,0,0,1,.32.14l4.95,4.94a0.93,0.93,0,0,0,1.33,0l3.8-3.8a0.936,0.936,0,0,0,0-1.33Zm2.62,5.94-1.82,1.82a0.46,0.46,0,0,1-.33.13,0.454,0.454,0,0,1-.32-0.13l-4.95-4.95a0.954,0.954,0,0,0-1.33,0l-1.06,1.06a0.471,0.471,0,0,1-.33.14,0.5,0.5,0,0,1-.12-0.02,0.49,0.49,0,0,1-.33-0.34l-1.77-7.7a0.45,0.45,0,0,1,.45-0.56,0.34,0.34,0,0,1,.1.01l7.7,1.78a0.459,0.459,0,0,1,.34.32,0.469,0.469,0,0,1-.12.45l-1.06,1.06a0.929,0.929,0,0,0-.28.67,0.907,0.907,0,0,0,.28.66l4.95,4.95a0.487,0.487,0,0,1,.13.33A0.482,0.482,0,0,1,1412.19,2144.58Z" transform="translate(-1359.5 -2089.5)"/>
</svg>
