<svg xmlns="http://www.w3.org/2000/svg" width="75" height="75" viewBox="0 0 75 75">
  <defs>
    <style>
      .cls-1 {
        fill: #fff;
        fill-rule: evenodd;
      }
    </style>
  </defs>
  <path id="icon-promote-white" class="cls-1" d="M890.162,2614.58a0.932,0.932,0,0,1-.666-0.28l-9.814-9.82a0.953,0.953,0,0,1,0-1.34,0.956,0.956,0,0,1,1.332,0l9.815,9.83A0.945,0.945,0,0,1,890.162,2614.58Zm4.206-4.21a0.93,0.93,0,0,1-.665-0.28l-9.815-9.82a0.951,0.951,0,0,1,0-1.34,0.956,0.956,0,0,1,1.332,0l9.814,9.83a0.939,0.939,0,0,1,0,1.33A0.929,0.929,0,0,1,894.368,2610.37Zm4.207-4.21a0.931,0.931,0,0,1-.666-0.28l-9.815-9.82a0.951,0.951,0,0,1,0-1.34,0.956,0.956,0,0,1,1.332,0l9.814,9.83a0.939,0.939,0,0,1,0,1.33A0.928,0.928,0,0,1,898.575,2606.16Zm15.182-25.98a4.008,4.008,0,0,0-2.847-1.18,1.968,1.968,0,0,0-.248.01l-12.173,1.1a0.95,0.95,0,0,0-.853,1.03,0.926,0.926,0,0,0,.935.86,0.268,0.268,0,0,0,.089-0.01l12.142-1.1a0.463,0.463,0,0,1,.117-0.01,2.155,2.155,0,0,1,2.136,2.23l-1.356,15a0.482,0.482,0,0,1-.133.29l-21.975,22a0.473,0.473,0,0,1-.651,0l-15.347-15.37a0.459,0.459,0,0,1,0-.65l16.737-16.75a0.953,0.953,0,0,0,0-1.34,0.956,0.956,0,0,0-1.332,0l-0.717.72h0a2.028,2.028,0,0,1-1.052.42h-0.018a11.9,11.9,0,0,1-1.864.15,9.649,9.649,0,0,1-8.2-4.28,0.46,0.46,0,0,1,.141-0.61,9.927,9.927,0,0,1,5.735-1.72c6.37,0,12.918,5.08,15.437,7.27a0.46,0.46,0,0,1,.1.57,4.861,4.861,0,0,0,7.693,5.79,4.811,4.811,0,0,0-3.416-8.26,5.047,5.047,0,0,0-2.482.64,0.454,0.454,0,0,1-.225.06,0.446,0.446,0,0,1-.305-0.12c-2.088-1.85-9.467-7.88-16.8-7.88a11.815,11.815,0,0,0-7.6,2.68,1.561,1.561,0,0,0-.171,1.99,11.07,11.07,0,0,0,9.5,5.74,0.461,0.461,0,0,1,.409.29,0.474,0.474,0,0,1-.1.5l-13.789,13.8a0.934,0.934,0,0,0-.276.67,0.911,0.911,0,0,0,.276.66l17.33,17.35a0.932,0.932,0,0,0,1.332,0l23.326-23.35a0.933,0.933,0,0,0,.271-0.58l1.4-15.55A4.024,4.024,0,0,0,913.757,2580.18Zm-13.066,8.86a2.991,2.991,0,0,1,5.105,2.11,2.99,2.99,0,1,1-5.98,0A2.953,2.953,0,0,1,900.691,2589.04Z" transform="translate(-855.469 -2563.5)"/>
</svg>
