<svg xmlns="http://www.w3.org/2000/svg" width="75" height="75" viewBox="0 0 75 75">
  <defs>
    <style>
      .cls-1 {
        fill: #6aaae4;
        fill-rule: evenodd;
      }
    </style>
  </defs>
  <path id="icon-internal-blue" class="cls-1" d="M2476.99,2595.07a0.925,0.925,0,0,0-.02-0.29,0.293,0.293,0,0,0-.03-0.1,0.659,0.659,0,0,0-.11-0.24,0.169,0.169,0,0,1-.03-0.06l-0.03-.03c-0.01-.01-0.02-0.03-0.03-0.04a0.964,0.964,0,0,0-.58-0.3,0.277,0.277,0,0,0-.09-0.01,0.688,0.688,0,0,0-.25.02,0.5,0.5,0,0,0-.12.02c-0.02.01-.05,0.01-0.08,0.02l-46,19.04a1,1,0,0,0-.62.91,1.018,1.018,0,0,0,.61.93l10.51,4.57a1,1,0,1,0,.8-1.84l-8.35-3.63,36.89-15.26-26.07,20.14c-0.01.01-.01,0.02-0.02,0.03a0.757,0.757,0,0,0-.18.22,0.538,0.538,0,0,0-.09.12v0.01a0.891,0.891,0,0,0-.09.39c0,0.01-.01.01-0.01,0.02v11.28a1,1,0,0,0,.61.92,1.087,1.087,0,0,0,.39.08,1,1,0,0,0,.69-0.27l5.51-5.24a1,1,0,1,0-1.37-1.45l-3.83,3.63v-7.39l14.59,6.68a0.857,0.857,0,0,0,.41.1,1.016,1.016,0,0,0,.9-0.56l16-32.05a0.911,0.911,0,0,0,.09-0.31v-0.06Zm-17.45,30.66-13.61-6.24,27.23-21.04Z" transform="translate(-2415.5 -2575.5)"/>
</svg>
