<svg xmlns="http://www.w3.org/2000/svg" width="37" height="81" viewBox="0 0 37 81">
  <defs>
    <style>
      .cls-1 {
        fill: #fff;
        fill-rule: evenodd;
      }
    </style>
  </defs>
  <path id="icon-scroll" class="cls-1" d="M415.166,1080.02l-11.286,9.06-11.3-9.06a1.278,1.278,0,1,0-1.615,1.98l12.1,9.71a1.3,1.3,0,0,0,1.611,0l12.1-9.71A1.278,1.278,0,1,0,415.166,1080.02Zm-11.286-69.03a18.44,18.44,0,0,0-18.493,18.35v21.93a18.491,18.491,0,0,0,36.981,0v-21.93A18.44,18.44,0,0,0,403.88,1010.99Zm15.918,40.28a15.921,15.921,0,0,1-31.841,0v-21.93a15.921,15.921,0,0,1,31.841,0v21.93Zm-15.918-29.16a2.545,2.545,0,0,0-2.552,2.53v6.05a2.547,2.547,0,0,0,5.093,0v-6.05A2.538,2.538,0,0,0,403.88,1022.11Z" transform="translate(-385.375 -1011)"/>
</svg>
