<svg xmlns="http://www.w3.org/2000/svg" width="75" height="75" viewBox="0 0 75 75">
  <defs>
    <style>
      .cls-1 {
        fill: #6aaae4;
        fill-rule: evenodd;
      }
    </style>
  </defs>
  <path id="icon_custom" class="cls-1" d="M1273.12,1413a10.466,10.466,0,0,1-10.62-10.29,10.732,10.732,0,0,1,.3-2.61,0.457,0.457,0,0,0-.12-0.43l-4.24-4.2a0.437,0.437,0,0,0-.33-0.14h0a0.431,0.431,0,0,0-.32.14l-3.66,3.63a0.459,0.459,0,0,0,0,.65l3.24,3.21a0.942,0.942,0,0,1,0,1.34,0.966,0.966,0,0,1-1.34,0l-0.9-.9a0.484,0.484,0,0,0-.66,0l-8.84,8.78a2.861,2.861,0,0,1-2.01.81,3.043,3.043,0,0,1-2.16-.9l-1.77-1.75a2.926,2.926,0,0,1-.09-4.14l8.85-8.78a0.459,0.459,0,0,0,0-.65l-0.91-.89a0.951,0.951,0,0,1,1.35-1.34l3.24,3.23a0.507,0.507,0,0,0,.33.13h0a0.487,0.487,0,0,0,.33-0.13l3.65-3.64a0.45,0.45,0,0,0,0-.65l-4.23-4.2a0.471,0.471,0,0,0-.33-0.14,0.425,0.425,0,0,0-.11.02,10.817,10.817,0,0,1-2.43.29h-0.2a10.533,10.533,0,0,1-9.53-14.77,0.938,0.938,0,0,1,.69-0.56,0.954,0.954,0,0,1,.86.25l5.31,5.27a0.471,0.471,0,0,0,.33.14,0.466,0.466,0,0,0,.32-0.14l2.38-2.35a0.459,0.459,0,0,0,0-.65l-5.31-5.27a0.951,0.951,0,0,1-.26-0.86,0.936,0.936,0,0,1,.57-0.68,11.3,11.3,0,0,1,4.26-.83,10.453,10.453,0,0,1,10.29,13.03,0.458,0.458,0,0,0,.12.44l4.19,4.15a0.431,0.431,0,0,0,.32.14,0.453,0.453,0,0,0,.33-0.14l9.4-9.32a0.471,0.471,0,0,0,0-.66l-0.41-.4a0.936,0.936,0,0,1,0-1.33l5.66-5.61a0.942,0.942,0,0,1,1.34,0l2.82,2.79a0.936,0.936,0,0,1,0,1.33l-5.66,5.62a0.92,0.92,0,0,1-.67.27,0.937,0.937,0,0,1-.67-0.27l-0.41-.41a0.459,0.459,0,0,0-.66,0l-9.4,9.32a0.459,0.459,0,0,0,0,.65l4.19,4.16a0.46,0.46,0,0,0,.33.13,0.487,0.487,0,0,0,.12-0.01,10.52,10.52,0,0,1,2.57-.32,10.538,10.538,0,0,1,9.72,14.76,0.973,0.973,0,0,1-.69.57,1.21,1.21,0,0,1-.19.01,0.945,0.945,0,0,1-.67-0.27l-5.31-5.27a0.459,0.459,0,0,0-.66,0l-2.37,2.35a0.471,0.471,0,0,0,0,.66l5.31,5.26a0.979,0.979,0,0,1,.26.86,0.949,0.949,0,0,1-.58.68A11.224,11.224,0,0,1,1273.12,1413Zm-23-14.38a0.471,0.471,0,0,0-.33.14l-8.84,8.77a0.939,0.939,0,0,0-.26.77,1.186,1.186,0,0,0,.34.71l1.77,1.75a1.177,1.177,0,0,0,.82.35,0.921,0.921,0,0,0,.66-0.27l8.85-8.77a0.459,0.459,0,0,0,0-.65l-2.68-2.66A0.471,0.471,0,0,0,1250.12,1398.62Zm22.43-4.19a8.134,8.134,0,0,0-5.78,2.35,8.023,8.023,0,0,0-2.37,5.9,8.555,8.555,0,0,0,8.75,8.42,9.658,9.658,0,0,0,1.2-.07,0.453,0.453,0,0,0,.38-0.31,0.473,0.473,0,0,0-.11-0.48l-3.72-3.69a2.135,2.135,0,0,1-.64-1.48,2.05,2.05,0,0,1,.6-1.51l2.74-2.71a1.973,1.973,0,0,1,1.44-.61h0.07a2.164,2.164,0,0,1,1.5.64l3.72,3.69a0.471,0.471,0,0,0,.33.14,0.4,0.4,0,0,0,.15-0.03,0.44,0.44,0,0,0,.31-0.37,8.693,8.693,0,0,0-2.33-7.28A8.838,8.838,0,0,0,1272.55,1394.43Zm-14.24-9.96a0.09,0.09,0,0,0-.05.01,0.433,0.433,0,0,0-.34.21,9.764,9.764,0,0,1-1.46,1.86,9.976,9.976,0,0,1-1.97,1.51,0.455,0.455,0,0,0-.23.34,0.449,0.449,0,0,0,.13.38l8.79,8.72a0.43,0.43,0,0,0,.33.13h0.05a0.453,0.453,0,0,0,.34-0.22,10.429,10.429,0,0,1,1.52-1.96,9.873,9.873,0,0,1,1.88-1.45,0.471,0.471,0,0,0,.22-0.34,0.489,0.489,0,0,0-.14-0.38l-8.74-8.67A0.453,0.453,0,0,0,1258.31,1384.47Zm-17.09-7.18a0.4,0.4,0,0,0-.15.03,0.441,0.441,0,0,0-.31.38,8.688,8.688,0,0,0,2.34,7.27,8.827,8.827,0,0,0,6.08,2.6h0.22a8.046,8.046,0,0,0,8.08-8.27,8.539,8.539,0,0,0-8.75-8.4,9.658,9.658,0,0,0-1.2.07,0.466,0.466,0,0,0-.38.31,0.455,0.455,0,0,0,.12.47l3.72,3.7a2.107,2.107,0,0,1,.03,2.99l-2.73,2.71a2.079,2.079,0,0,1-1.48.6,2.162,2.162,0,0,1-1.54-.63l-3.72-3.69A0.471,0.471,0,0,0,1241.22,1377.29Zm34.94-.58a0.459,0.459,0,0,0,.66,0l3.66-3.63a0.463,0.463,0,0,0,.13-0.32,0.507,0.507,0,0,0-.13-0.33l-0.82-.81a0.484,0.484,0,0,0-.66,0l-3.65,3.63a0.453,0.453,0,0,0-.14.33,0.431,0.431,0,0,0,.14.32l0.4,0.4Z" transform="translate(-1223.44 -1353.5)"/>
</svg>
