<svg xmlns="http://www.w3.org/2000/svg" width="75" height="75" viewBox="0 0 75 75">
  <defs>
    <style>
      .cls-1 {
        fill: #6aaae4;
        fill-rule: evenodd;
      }
    </style>
  </defs>
  <path id="icon-creative-blue" class="cls-1" d="M5541,2627c-9.03,0-16.38,7.04-16.38,15.68a15.259,15.259,0,0,0,4.48,10.78,0.947,0.947,0,0,0,.67.28,0.9,0.9,0,0,0,.66-0.27,0.924,0.924,0,0,0,.28-0.66,0.882,0.882,0,0,0-.27-0.67,13.407,13.407,0,0,1-3.94-9.46c0-7.6,6.51-13.79,14.5-13.79s14.5,6.19,14.5,13.79a13.357,13.357,0,0,1-4.34,9.84,0.968,0.968,0,0,0-.3.66,1.014,1.014,0,0,0,.26.68,0.955,0.955,0,0,0,1.33.04,15.254,15.254,0,0,0,4.93-11.22C5557.38,2634.04,5550.03,2627,5541,2627Zm-2.81,18.67a0.929,0.929,0,0,0,.85-0.46l1.55-3.1a0.453,0.453,0,0,1,.82,0l1.55,3.1a0.948,0.948,0,0,0,.85.52,0.933,0.933,0,0,0,.84-0.52l2.81-5.61a0.954,0.954,0,0,0-.42-1.27,0.9,0.9,0,0,0-.42-0.1,0.948,0.948,0,0,0-.85.52l-1.55,3.11a0.472,0.472,0,0,1-.41.25,0.449,0.449,0,0,1-.41-0.25l-1.56-3.11a1,1,0,0,0-1.68,0l-1.56,3.11a0.449,0.449,0,0,1-.41.25,0.472,0.472,0,0,1-.41-0.25l-1.55-3.11a0.948,0.948,0,0,0-.85-0.52,0.9,0.9,0,0,0-.42.1,0.954,0.954,0,0,0-.42,1.27l2.81,5.61A0.924,0.924,0,0,0,5538.19,2645.67Zm10.77,13.86a3.056,3.056,0,0,0-3.05-3.05h-0.7a0.465,0.465,0,0,1-.46-0.46v-5.62a0.945,0.945,0,0,0-1.89,0v5.62a0.459,0.459,0,0,1-.46.46h-2.8a0.459,0.459,0,0,1-.46-0.46v-5.62a0.945,0.945,0,0,0-1.89,0v5.62a0.465,0.465,0,0,1-.46.46h-0.7a3.056,3.056,0,0,0-3.05,3.05,3.017,3.017,0,0,0,.62,1.83,0.437,0.437,0,0,1,0,.55,3.017,3.017,0,0,0-.62,1.83,3.056,3.056,0,0,0,3.05,3.05h0.7a0.465,0.465,0,0,1,.46.46,3.75,3.75,0,0,0,7.5,0,0.465,0.465,0,0,1,.46-0.46h0.7a3.056,3.056,0,0,0,3.05-3.05,3.017,3.017,0,0,0-.62-1.83,0.437,0.437,0,0,1,0-.55A3.017,3.017,0,0,0,5548.96,2659.53Zm-7.96,9.58a1.856,1.856,0,0,1-1.86-1.86,0.459,0.459,0,0,1,.46-0.46h2.8a0.459,0.459,0,0,1,.46.46A1.856,1.856,0,0,1,5541,2669.11Zm4.91-4.21h-9.82a1.16,1.16,0,1,1,0-2.32h9.82A1.16,1.16,0,1,1,5545.91,2664.9Zm0-4.21h-9.82a1.16,1.16,0,1,1,0-2.32h9.82A1.16,1.16,0,1,1,5545.91,2660.69Zm13.34-29a0.937,0.937,0,0,0,.67-0.27l2.8-2.81a0.947,0.947,0,0,0,.28-0.67,0.956,0.956,0,0,0-.94-0.94,0.929,0.929,0,0,0-.67.28l-2.81,2.8A0.94,0.94,0,0,0,5559.25,2631.69Zm-38.64-4.41a0.947,0.947,0,0,0-.67-0.28,0.956,0.956,0,0,0-.94.94,0.947,0.947,0,0,0,.28.67l2.8,2.81a0.948,0.948,0,0,0,1.34-1.34Zm2.14,26.39a0.947,0.947,0,0,0-.67.28l-2.8,2.81a0.907,0.907,0,0,0-.28.66,0.947,0.947,0,0,0,.28.67,0.907,0.907,0,0,0,.66.28,0.947,0.947,0,0,0,.67-0.28l2.81-2.81a0.954,0.954,0,0,0,0-1.33A0.947,0.947,0,0,0,5522.75,2653.67Zm37.17,0.28a0.942,0.942,0,0,0-1.34,0,0.954,0.954,0,0,0,0,1.33l2.81,2.81a0.929,0.929,0,0,0,.67.28,0.907,0.907,0,0,0,.66-0.28,0.947,0.947,0,0,0,.28-0.67,0.907,0.907,0,0,0-.28-0.66Z" transform="translate(-5503.5 -2611.5)"/>
</svg>
