<svg xmlns="http://www.w3.org/2000/svg" width="75" height="75" viewBox="0 0 75 75">
  <defs>
    <style>
      .cls-1 {
        fill: #6aaae4;
        fill-rule: evenodd;
      }
    </style>
  </defs>
  <path id="icon-schedule-blue" class="cls-1" d="M5528.83,2162.23h-1.74a0.068,0.068,0,0,0-.07.07v1.74a0.077,0.077,0,0,0,.07.08h1.74a0.077,0.077,0,0,0,.07-0.08v-1.74A0.068,0.068,0,0,0,5528.83,2162.23Zm5.62,0h-1.74a0.077,0.077,0,0,0-.08.07v1.74a0.086,0.086,0,0,0,.08.08h1.74a0.077,0.077,0,0,0,.07-0.08v-1.74A0.068,0.068,0,0,0,5534.45,2162.23Zm5.61,0h-1.74a0.068,0.068,0,0,0-.07.07v1.74a0.077,0.077,0,0,0,.07.08h1.74a0.086,0.086,0,0,0,.08-0.08v-1.74A0.077,0.077,0,0,0,5540.06,2162.23Zm5.62,0h-1.74a0.077,0.077,0,0,0-.08.07v1.74a0.086,0.086,0,0,0,.08.08h1.74a0.077,0.077,0,0,0,.07-0.08v-1.74A0.068,0.068,0,0,0,5545.68,2162.23Zm-16.85,5.62h-1.74a0.068,0.068,0,0,0-.07.07v1.74a0.068,0.068,0,0,0,.07.07h1.74a0.068,0.068,0,0,0,.07-0.07v-1.74A0.068,0.068,0,0,0,5528.83,2167.85Zm5.62,0h-1.74a0.077,0.077,0,0,0-.08.07v1.74a0.077,0.077,0,0,0,.08.07h1.74a0.068,0.068,0,0,0,.07-0.07v-1.74A0.068,0.068,0,0,0,5534.45,2167.85Zm3.87,1.88h1.74a0.077,0.077,0,0,0,.08-0.07v-1.74a0.077,0.077,0,0,0-.08-0.07h-1.74a0.068,0.068,0,0,0-.07.07v1.74A0.068,0.068,0,0,0,5538.32,2169.73Zm5.62,0h1.74a0.068,0.068,0,0,0,.07-0.07v-1.74a0.068,0.068,0,0,0-.07-0.07h-1.74a0.077,0.077,0,0,0-.08.07v1.74A0.077,0.077,0,0,0,5543.94,2169.73Zm-15.11,3.73h-1.74a0.068,0.068,0,0,0-.07.07v1.74a0.077,0.077,0,0,0,.07.08h1.74a0.077,0.077,0,0,0,.07-0.08v-1.74A0.068,0.068,0,0,0,5528.83,2173.46Zm5.62,0h-1.74a0.077,0.077,0,0,0-.08.07v1.74a0.086,0.086,0,0,0,.08.08h1.74a0.077,0.077,0,0,0,.07-0.08v-1.74A0.068,0.068,0,0,0,5534.45,2173.46Zm-7.36,7.5h1.74a0.068,0.068,0,0,0,.07-0.07v-1.74a0.068,0.068,0,0,0-.07-0.07h-1.74a0.068,0.068,0,0,0-.07.07v1.74A0.068,0.068,0,0,0,5527.09,2180.96Zm5.62,0h1.74a0.068,0.068,0,0,0,.07-0.07v-1.74a0.068,0.068,0,0,0-.07-0.07h-1.74a0.077,0.077,0,0,0-.08.07v1.74A0.077,0.077,0,0,0,5532.71,2180.96Zm7.35-7.5h-1.74a0.068,0.068,0,0,0-.07.07v1.74a0.077,0.077,0,0,0,.07.08h1.74a0.086,0.086,0,0,0,.08-0.08v-1.74A0.077,0.077,0,0,0,5540.06,2173.46Zm1-17.31v1.41a0.94,0.94,0,1,0,1.88,0v-1.41a0.465,0.465,0,0,1,.46-0.46h2.81a0.459,0.459,0,0,1,.46.46v1.41a0.945,0.945,0,0,0,1.89,0v-1.41a0.459,0.459,0,0,1,.46-0.46h1.4a0.459,0.459,0,0,1,.46.46v11.23a0.945,0.945,0,1,0,1.89,0v-12.63a0.939,0.939,0,0,0-.94-0.94h-2.81a0.459,0.459,0,0,1-.46-0.46v-1.41a0.945,0.945,0,0,0-1.89,0v1.41a0.459,0.459,0,0,1-.46.46h-2.81a0.465,0.465,0,0,1-.46-0.46v-1.41a0.94,0.94,0,0,0-1.88,0v1.41a0.465,0.465,0,0,1-.46.46h-2.81a0.459,0.459,0,0,1-.46-0.46v-1.41a0.945,0.945,0,0,0-1.89,0v1.41a0.459,0.459,0,0,1-.46.46h-2.81a0.465,0.465,0,0,1-.46-0.46v-1.41a0.94,0.94,0,0,0-1.88,0v1.41a0.465,0.465,0,0,1-.46.46h-2.81a0.459,0.459,0,0,1-.46-0.46v-1.41a0.945,0.945,0,0,0-1.89,0v1.41a0.459,0.459,0,0,1-.46.46h-2.81a0.939,0.939,0,0,0-.94.94v30.88a0.947,0.947,0,0,0,.94.95h15.44a0.945,0.945,0,1,0,0-1.89h-14.03a0.459,0.459,0,0,1-.46-0.46v-28.08a0.459,0.459,0,0,1,.46-0.46h1.4a0.459,0.459,0,0,1,.46.46v1.41a0.945,0.945,0,0,0,1.89,0v-1.41a0.459,0.459,0,0,1,.46-0.46h2.81a0.465,0.465,0,0,1,.46.46v1.41a0.94,0.94,0,0,0,1.88,0v-1.41a0.465,0.465,0,0,1,.46-0.46h2.81a0.459,0.459,0,0,1,.46.46v1.41a0.945,0.945,0,0,0,1.89,0v-1.41a0.459,0.459,0,0,1,.46-0.46h2.81A0.465,0.465,0,0,1,5541.06,2156.15Zm10.77,14.5a12.175,12.175,0,1,0,12.17,12.18A12.189,12.189,0,0,0,5551.83,2170.65Zm0,22.46a10.285,10.285,0,1,1,10.28-10.28A10.292,10.292,0,0,1,5551.83,2193.11Zm7.02-11.23h-5.62a0.459,0.459,0,0,1-.46-0.46v-4.21a0.945,0.945,0,0,0-1.89,0v5.62a0.947,0.947,0,0,0,.95.94h7.02A0.945,0.945,0,0,0,5558.85,2181.88Z" transform="translate(-5504.5 -2135.5)"/>
</svg>
