<svg xmlns="http://www.w3.org/2000/svg" width="75" height="75" viewBox="0 0 75 75">
  <defs>
    <style>
      .cls-1 {
        fill: #6aaae4;
        fill-rule: evenodd;
      }
    </style>
  </defs>
  <path id="icon-built-blue" class="cls-1" d="M378.5,2622a2.225,2.225,0,0,1-.632-0.09c-18.765-5.68-18.868-29.29-18.453-36.39a2.308,2.308,0,0,1,2.278-2.14h0.08c0.386,0.02.784,0.03,1.176,0.03a23.466,23.466,0,0,0,14.184-4.93,2.185,2.185,0,0,1,2.733,0,23.419,23.419,0,0,0,14.14,4.94c0.408,0,.821-0.01,1.229-0.04h0.026a2.276,2.276,0,0,1,2.325,2.14c0.415,7.1.313,30.71-18.454,36.39A2.225,2.225,0,0,1,378.5,2622Zm-16.853-36.73a0.449,0.449,0,0,0-.31.12,0.439,0.439,0,0,0-.15.32c-0.369,8.66.571,29.35,17.223,34.39a0.459,0.459,0,0,0,.268,0c17.32-5.27,17.415-27.66,17.032-34.39a0.462,0.462,0,0,0-.459-0.44h-0.023c-0.384.02-.775,0.03-1.158,0.03a25.045,25.045,0,0,1-15.287-5.28,0.49,0.49,0,0,0-.566,0,25.423,25.423,0,0,1-15.3,5.28c-0.412,0-.831-0.01-1.244-0.03h-0.023Zm16.854,19.38a0.919,0.919,0,0,1-.665-0.27l-3.765-3.77a0.941,0.941,0,0,1,0-1.33,0.932,0.932,0,0,1,1.332,0l2.773,2.77a0.448,0.448,0,0,0,.651,0l8.826-8.83a0.941,0.941,0,1,1,1.332,1.33l-9.818,9.83A0.921,0.921,0,0,1,378.5,2604.65Zm0,6.12a10.77,10.77,0,1,1,5.37-20.1,0.944,0.944,0,0,1-.472,1.76,0.966,0.966,0,0,1-.468-0.13,8.884,8.884,0,1,0,4.355,8.97,0.956,0.956,0,0,1,.945-0.81c0.042,0,.084.01,0.127,0.01a0.947,0.947,0,0,1,.794,1.07A10.81,10.81,0,0,1,378.5,2610.77Z" transform="translate(-341 -2562.5)"/>
</svg>
